<svg width="118" height="32" viewBox="0 0 118 32" fill="none" xmlns="http://www.w3.org/2000/svg">
<g clip-path="url(#clip0_923_821)">
<path d="M21.8884 27.9189C21.2689 27.9187 20.6531 27.8219 20.0632 27.6319C19.9187 27.5858 19.7883 27.5397 19.6668 27.4901L19.1717 27.2916L19.9927 26.4729L20.2041 26.5509C20.3222 26.5934 20.4402 26.6324 20.5565 26.6661C21.3915 26.9027 22.2741 26.9112 23.1135 26.6907C23.9528 26.4701 24.7185 26.0285 25.3318 25.4113C25.945 24.7941 26.3836 24.0237 26.6024 23.1793C26.8212 22.3349 26.8122 21.4471 26.5764 20.6074C26.5447 20.4886 26.506 20.3681 26.4619 20.253C26.3514 19.9476 26.2103 19.6543 26.0409 19.3776C25.981 19.2783 25.9193 19.1826 25.8541 19.0923C25.6948 18.871 25.5181 18.663 25.3256 18.4703L16.1379 9.22893L16.8867 8.47403L26.0743 17.7154C26.2924 17.9357 26.4933 18.1727 26.6751 18.4242C26.7438 18.5181 26.8143 18.6244 26.8918 18.7449C27.0881 19.0542 27.2556 19.3811 27.3921 19.7213C27.4415 19.8436 27.4873 19.973 27.5331 20.1183C27.8172 21.0136 27.8875 21.9637 27.7383 22.8915C27.589 23.8193 27.2244 24.6986 26.674 25.4581C26.1237 26.2176 25.403 26.8359 24.5706 27.2629C23.7382 27.6898 22.8175 27.9134 21.8831 27.9154L21.8884 27.9189Z" fill="#417AA4"/>
<path d="M21.8355 31.9823C20.1052 31.9836 18.4046 31.5297 16.9026 30.6656C16.7898 30.6018 16.6771 30.5345 16.5661 30.4654L16.1538 30.2049L16.5273 29.8913C16.6207 29.8151 16.7035 29.7353 16.8021 29.6538L16.9959 29.4766L17.2197 29.613C17.3219 29.6768 17.4258 29.7371 17.5298 29.7902C19.2197 30.7327 21.1688 31.0962 23.0824 30.8258C24.9959 30.5555 26.77 29.666 28.1365 28.2917C29.5029 26.9174 30.3876 25.1331 30.6566 23.2084C30.9257 21.2837 30.5646 19.3232 29.6278 17.6232C29.5697 17.5187 29.508 17.4141 29.4517 17.3113C29.2825 17.0321 29.0985 16.7624 28.9002 16.5033C28.8298 16.4111 28.7558 16.3261 28.6818 16.2304C28.5056 16.0213 28.3294 15.821 28.1427 15.6367L18.9586 6.39895L19.3109 6.15972C19.4184 6.08706 19.5294 6.01972 19.6527 5.95238L19.8835 5.82657L28.8861 14.8818C29.0764 15.0732 29.2632 15.277 29.4411 15.4897C29.5239 15.5853 29.6032 15.6846 29.6807 15.7838C29.8989 16.0625 30.1018 16.353 30.2885 16.6539C30.359 16.7655 30.4242 16.879 30.4894 16.9924C31.3568 18.5158 31.8106 20.2419 31.8052 21.9975C31.7998 23.753 31.3354 25.4763 30.4587 26.9943C29.5819 28.5123 28.3236 29.7716 26.81 30.6459C25.2965 31.5202 23.5809 31.9786 21.8355 31.9752V31.9823Z" fill="#417AA4"/>
<path d="M21.8496 30.6461C20.4888 30.6455 19.1474 30.3212 17.9349 29.6998C17.8187 29.6396 17.7041 29.5793 17.5914 29.5226L17.1897 29.2905L17.9649 28.509L18.1974 28.6366C18.3014 28.6951 18.4071 28.75 18.5145 28.8032C19.9307 29.5011 21.5285 29.7361 23.084 29.4752C24.6396 29.2143 26.0751 28.4706 27.1895 27.3483C28.304 26.226 29.0416 24.7812 29.299 23.2162C29.5565 21.6513 29.3209 20.0445 28.6254 18.6209C28.5743 18.5146 28.5197 18.4082 28.4615 18.3037C28.3067 18.0217 28.1349 17.7495 27.9471 17.4885C27.8784 17.3964 27.8097 17.3113 27.7374 17.2156C27.5642 16.9991 27.3795 16.7921 27.1842 16.5954L18.0019 7.3523L18.7594 6.60803L27.9471 15.8476C28.1585 16.062 28.3629 16.2888 28.5514 16.5228C28.6306 16.622 28.7064 16.7212 28.7804 16.8205C28.988 17.1041 29.1786 17.4 29.3512 17.7065C29.4146 17.8199 29.4763 17.9351 29.5274 18.0503C30.1935 19.3724 30.5121 20.8439 30.4528 22.3249C30.3935 23.8058 29.9583 25.2469 29.1886 26.5108C28.4189 27.7747 27.3404 28.8194 26.0558 29.5454C24.7712 30.2715 23.3231 30.6547 21.8496 30.6585V30.6461Z" fill="#417AA4"/>
<path d="M21.8583 29.3029C20.8615 29.3017 19.8754 29.0961 18.9602 28.6986C18.8369 28.6455 18.7171 28.5888 18.5973 28.5303L18.1586 28.3105L18.9479 27.5167L19.1716 27.623C19.2808 27.6744 19.3918 27.724 19.5028 27.7701C20.6359 28.2329 21.8795 28.3494 23.0781 28.1052C24.2767 27.861 25.3772 27.2669 26.242 26.3971C27.1067 25.5273 27.6974 24.4204 27.9402 23.2148C28.183 22.0091 28.0671 20.7583 27.607 19.6186C27.5629 19.5051 27.5136 19.3953 27.4625 19.2854C27.3245 18.9934 27.1643 18.7126 26.9833 18.4455C26.9199 18.3515 26.8529 18.2682 26.7842 18.169C26.6177 17.95 26.437 17.7422 26.2434 17.547L17.054 8.30568L17.8045 7.55078L26.9921 16.7921C27.2077 17.0078 27.409 17.2374 27.5946 17.4797C27.6739 17.5789 27.7479 17.6817 27.8201 17.7862C28.0232 18.079 28.2046 18.3864 28.3628 18.706C28.4227 18.8265 28.4773 18.9487 28.5389 19.071C29.0159 20.1848 29.2108 21.4002 29.1062 22.6083C29.0015 23.8165 28.6006 24.9797 27.9393 25.9937C27.278 27.0078 26.377 27.841 25.317 28.4189C24.257 28.9967 23.071 29.301 21.8654 29.3047L21.8583 29.3029Z" fill="#417AA4"/>
<path d="M15.0032 23.4834L5.78386 14.2102C5.57742 14.0027 5.38662 13.7799 5.21305 13.5439C5.13729 13.4429 5.0633 13.3348 4.99282 13.2249C4.79499 12.9163 4.62573 12.5901 4.4872 12.2503C4.43787 12.1298 4.3903 12.0004 4.34273 11.8551C3.99759 10.8033 3.94971 9.67578 4.20441 8.59821C4.45911 7.52064 5.00639 6.53542 5.78522 5.7524C6.56405 4.96939 7.54381 4.41937 8.61524 4.16369C9.68666 3.908 10.8076 3.9567 11.8532 4.30435C11.9976 4.35219 12.1262 4.39827 12.246 4.44788L12.7358 4.6499L11.9254 5.46682L11.7122 5.38531C11.5871 5.33924 11.4726 5.30025 11.3599 5.26658C10.5187 5.01886 9.62681 5.0034 8.77768 5.22181C7.92856 5.44022 7.15351 5.88445 6.53385 6.50791C5.9142 7.13137 5.47277 7.91107 5.25588 8.76523C5.03898 9.61938 5.05461 10.5165 5.30114 11.3625C5.33285 11.4741 5.37161 11.5893 5.41917 11.7169C5.53257 12.0206 5.67599 12.3121 5.84729 12.587C5.91247 12.6933 5.97413 12.7855 6.03579 12.8705C6.18601 13.0792 6.35275 13.2754 6.53438 13.4571L15.7537 22.7339L15.0032 23.4834Z" fill="#417AA4"/>
<path d="M11.9482 26.1823L2.91387 17.0951C2.7377 16.9179 2.56152 16.7212 2.38534 16.5245C2.30254 16.4271 2.22326 16.3296 2.14398 16.2304C1.92522 15.9529 1.72172 15.6636 1.5344 15.3638C1.46393 15.2539 1.39699 15.1405 1.3318 15.0289C0.233678 13.119 -0.206851 10.8978 0.0786032 8.71025C0.364057 6.52269 1.35953 4.49111 2.91047 2.9309C4.46141 1.3707 6.48105 0.369144 8.65587 0.0817388C10.8307 -0.205667 13.039 0.237151 14.938 1.34144C15.0507 1.40701 15.1617 1.47612 15.2727 1.54523L15.6814 1.80572L15.3097 2.11761C15.2181 2.19381 15.1335 2.27355 15.0366 2.35507L14.8411 2.53227L14.6173 2.39405C14.5151 2.33026 14.4112 2.27001 14.3073 2.21685C12.6163 1.2659 10.663 0.896094 8.74402 1.16362C6.82506 1.43114 5.04535 2.32136 3.67527 3.69904C2.3052 5.07673 1.41963 6.86657 1.1531 8.79667C0.886575 10.7268 1.25366 12.6916 2.19859 14.3927C2.25673 14.499 2.31839 14.6018 2.37477 14.7046C2.54535 14.982 2.7306 15.2499 2.92973 15.5073C3.00196 15.5995 3.07419 15.6846 3.14995 15.7803C3.31556 15.977 3.48645 16.1648 3.66087 16.3402L12.8767 25.6099L12.5243 25.8491C12.4186 25.92 12.3041 25.9891 12.1826 26.0547L11.9482 26.1823Z" fill="#417AA4"/>
<path d="M13.0793 25.4186L3.85998 16.1436C3.65764 15.9411 3.46594 15.7282 3.28564 15.5056C3.20637 15.4081 3.12885 15.3089 3.05485 15.2097C2.84583 14.9293 2.65403 14.6364 2.48052 14.3325C2.41533 14.2191 2.35367 14.1057 2.30434 13.9905C1.46538 12.3565 1.16468 10.4964 1.4457 8.67923C1.72671 6.86202 2.57489 5.18174 3.86765 3.88123C5.16041 2.58072 6.8308 1.72733 8.63741 1.44439C10.444 1.16146 12.2933 1.46364 13.9179 2.30725C14.0325 2.3675 14.147 2.42952 14.258 2.48446L14.6579 2.71482L13.8827 3.49453L13.6502 3.36517C13.5462 3.30669 13.4405 3.24999 13.3348 3.19682C11.9162 2.48581 10.3112 2.24129 8.74688 2.49781C7.18253 2.75434 5.73792 3.49893 4.61725 4.62634C3.49659 5.75375 2.75657 7.20694 2.50181 8.78047C2.24705 10.354 2.49043 11.9683 3.19756 13.3951C3.25041 13.5014 3.30502 13.6077 3.36316 13.7123C3.51979 13.9927 3.69336 14.2631 3.88289 14.5221C3.95159 14.6143 4.0203 14.6993 4.0943 14.795C4.2601 14.9997 4.43653 15.1955 4.62283 15.3816L13.8263 24.6619L13.0793 25.4186Z" fill="#417AA4"/>
<path d="M14.0254 24.4669L4.806 15.1937C4.60176 14.9887 4.40997 14.7715 4.23166 14.5434C4.15414 14.4441 4.07838 14.3431 4.00615 14.2386C3.80151 13.9477 3.61838 13.642 3.45824 13.3242C3.39834 13.2037 3.3402 13.0832 3.28206 12.9698C2.69144 11.6187 2.52032 10.1197 2.79113 8.66909C3.06193 7.21853 3.76202 5.88406 4.79968 4.84052C5.83735 3.79699 7.16419 3.09305 8.60638 2.82094C10.0486 2.54882 11.5388 2.72121 12.882 3.31553C12.9994 3.3687 13.1169 3.42776 13.2343 3.49274L13.6695 3.71425L12.882 4.50636L12.6565 4.39649C12.5472 4.34333 12.438 4.29371 12.327 4.24764C11.1899 3.77281 9.93827 3.64805 8.73062 3.88917C7.52298 4.13028 6.41362 4.72642 5.54302 5.6021C4.67243 6.47779 4.07975 7.59363 3.84003 8.80833C3.60032 10.023 3.72435 11.282 4.19642 12.4257C4.24223 12.5374 4.29156 12.649 4.34265 12.7571C4.48306 13.0472 4.64501 13.3262 4.82714 13.5917C4.89056 13.6857 4.95927 13.769 5.02798 13.8682C5.18822 14.0739 5.3606 14.2698 5.54418 14.4548L14.7635 23.728L14.0254 24.4669Z" fill="#417AA4"/>
<path d="M9.98038 32C8.23343 32.002 6.51669 31.5417 5.00259 30.6652C3.48849 29.7887 2.23034 28.5269 1.35451 27.0065C0.478683 25.4861 0.0160072 23.7607 0.0129547 22.0035C0.0099021 20.2464 0.466581 18.5193 1.33712 16.9959C1.40231 16.8825 1.46925 16.7691 1.53973 16.6574L1.79695 16.2463L2.10702 16.6184C2.18453 16.7106 2.26382 16.7956 2.34486 16.8931L2.52103 17.0898L2.38362 17.3166C2.32195 17.4194 2.26029 17.5222 2.20744 17.6267C1.26452 19.3278 0.898907 21.2917 1.16606 23.2206C1.43322 25.1495 2.31856 26.9382 3.68778 28.3152C5.057 29.6922 6.83538 30.5825 8.75313 30.8509C10.6709 31.1193 12.6234 30.7513 14.3143 29.8026C14.42 29.7441 14.5222 29.6821 14.6244 29.6254C14.902 29.4555 15.1696 29.2697 15.426 29.069C15.5176 28.9981 15.6022 28.9237 15.6973 28.8475C15.8982 28.6703 16.0902 28.4931 16.2699 28.3159L25.454 19.0621L25.6901 19.4272C25.7606 19.5335 25.8293 19.6504 25.8945 19.7727L26.0178 20.0049L17.0063 29.069C16.8301 29.2462 16.6258 29.4376 16.4214 29.6112C16.3263 29.6945 16.2276 29.7743 16.129 29.8522C15.8519 30.072 15.5638 30.2773 15.2657 30.4672C15.1565 30.5363 15.0437 30.6036 14.931 30.6692C13.425 31.5409 11.7179 31.9998 9.98038 32Z" fill="#417AA4"/>
<path d="M9.96455 30.6621C8.48913 30.658 7.0394 30.2735 5.75371 29.5455C4.46803 28.8175 3.38931 27.7701 2.62051 26.5035C1.85172 25.2368 1.41851 23.7931 1.36224 22.3102C1.30597 20.8272 1.62851 19.3545 2.29908 18.0326C2.35898 17.9174 2.41888 17.8022 2.48407 17.6888L2.7131 17.2848L3.48828 18.0662L3.35967 18.2984C3.30153 18.4047 3.24691 18.511 3.19406 18.6174C2.49336 20.0429 2.25462 21.6535 2.51142 23.2226C2.76823 24.7917 3.50766 26.2404 4.62569 27.3647C5.74372 28.4891 7.18408 29.2326 8.74412 29.4906C10.3042 29.7487 11.9054 29.5082 13.3225 28.8032C13.4282 28.7518 13.5339 28.6951 13.6378 28.6366C13.9181 28.482 14.1877 28.3085 14.4447 28.1174C14.5381 28.0483 14.6209 27.9774 14.7178 27.9065C14.9265 27.7361 15.1264 27.5551 15.3168 27.3643L24.5203 18.107L25.2708 18.8619L16.0673 28.1192C15.8594 28.3265 15.641 28.5268 15.4155 28.711C15.3186 28.7908 15.2182 28.8688 15.1195 28.9432C14.8372 29.1521 14.543 29.3444 14.2386 29.5191C14.1259 29.5829 14.0113 29.6449 13.8968 29.6963C12.6807 30.3272 11.3329 30.6582 9.96455 30.6621Z" fill="#417AA4"/>
<path d="M9.95053 29.3189C8.7428 29.3151 7.55491 29.0096 6.49361 28.4298C5.4323 27.85 4.53083 27.0141 3.8702 25.9971C3.20957 24.9802 2.81047 23.8141 2.70876 22.6036C2.60705 21.3931 2.80592 20.1762 3.28751 19.0621C3.34036 18.9399 3.39674 18.8194 3.46369 18.7077L3.68391 18.2682L4.47142 19.0621L4.36395 19.2872C4.3111 19.397 4.26177 19.5087 4.21773 19.6203C3.75128 20.7622 3.63108 22.0174 3.87223 23.2278C4.11339 24.4382 4.70514 25.5499 5.573 26.4228C6.44086 27.2958 7.54605 27.891 8.74946 28.1335C9.95287 28.3761 11.2007 28.2552 12.336 27.786C12.447 27.7399 12.5562 27.6903 12.6654 27.6389C12.9543 27.4989 13.2323 27.3372 13.497 27.1552C13.5904 27.0896 13.682 27.0223 13.7736 26.9531C13.9842 26.7889 14.1843 26.6113 14.3726 26.4215L17.5596 23.2159L23.5761 17.1642L24.3266 17.9191L15.1213 27.164C14.9121 27.3747 14.6903 27.5723 14.4571 27.7559C14.3585 27.8339 14.2563 27.9101 14.1541 27.9827C13.8635 28.1872 13.5585 28.3702 13.2415 28.5303C13.1217 28.5905 13.0019 28.6472 12.8804 28.7075C11.956 29.112 10.9586 29.3201 9.95053 29.3189Z" fill="#417AA4"/>
<path d="M9.97702 27.9845C9.03966 27.9826 8.11604 27.7577 7.28161 27.3282C6.44717 26.8986 5.72559 26.2767 5.17582 25.513C4.62604 24.7494 4.26366 23.8658 4.11829 22.9343C3.97291 22.0029 4.04866 21.0501 4.33935 20.1537C4.38868 20.0013 4.43272 19.8755 4.48029 19.7568L4.67937 19.2606L5.49331 20.0775L5.41403 20.2902C5.36999 20.4124 5.33123 20.5329 5.29775 20.6446C5.05613 21.4879 5.04361 22.3809 5.2615 23.2307C5.47939 24.0805 5.91973 24.856 6.53669 25.4766C7.15365 26.0972 7.92469 26.5401 8.76955 26.7592C9.61442 26.9784 10.5022 26.9658 11.3406 26.7228C11.4552 26.6909 11.575 26.6519 11.693 26.6058C11.9963 26.4937 12.2873 26.3506 12.5615 26.1787C12.6637 26.115 12.7571 26.0547 12.8434 25.9909C13.057 25.836 13.2579 25.6641 13.4442 25.477L16.6312 22.2713L22.6477 16.2197L23.3982 16.9746L14.1947 26.2319C13.983 26.4449 13.7557 26.6416 13.5147 26.8202C13.4195 26.8911 13.3156 26.962 13.1958 27.04C12.8886 27.2385 12.5636 27.4076 12.225 27.545C12.1052 27.5946 11.9802 27.6389 11.8304 27.6886C11.2318 27.884 10.6064 27.9839 9.97702 27.9845Z" fill="#417AA4"/>
<path d="M30.0347 15.7749L29.7246 15.3993C29.6471 15.3071 29.5696 15.2221 29.4885 15.1246L29.3123 14.9279L29.4498 14.7028C29.5114 14.6001 29.5731 14.4955 29.6259 14.391C30.5691 12.6907 30.9352 10.7273 30.6688 8.79883C30.4023 6.87032 29.5178 5.08183 28.1494 3.70465C26.7811 2.32748 25.0035 1.43676 23.0863 1.16763C21.1692 0.898491 19.217 1.26562 17.5261 2.21331C17.4204 2.27179 17.3182 2.33204 17.216 2.39052C16.9392 2.56003 16.6721 2.74521 16.4162 2.94517C16.3245 3.01782 16.24 3.09048 16.1448 3.16668C15.9422 3.34388 15.7485 3.52109 15.5687 3.6983L6.36877 12.952L6.12917 12.5976C6.0587 12.4913 5.98999 12.3761 5.92304 12.2574L5.79443 12.0235L14.8182 2.94694C15.005 2.7591 15.2023 2.57481 15.4067 2.40115C15.5036 2.31786 15.6005 2.23811 15.6991 2.16014C15.9757 1.94033 16.2639 1.73566 16.5624 1.54701C16.6734 1.4779 16.7844 1.41056 16.8971 1.34499C18.7951 0.247326 20.9997 -0.190594 23.17 0.0989847C25.3403 0.388564 27.3552 1.3895 28.903 2.94692C30.4508 4.50434 31.4451 6.53143 31.7322 8.71451C32.0192 10.8976 31.583 13.115 30.491 15.0236C30.4275 15.1388 30.3606 15.2504 30.2901 15.3621L30.0347 15.7749Z" fill="#417AA4"/>
<path d="M29.1186 14.7312L28.3434 13.9497L28.4721 13.7176C28.5302 13.6113 28.5848 13.5067 28.6377 13.3986C29.3384 11.9731 29.5771 10.3625 29.3203 8.79337C29.0635 7.22426 28.3241 5.77562 27.206 4.65125C26.088 3.52688 24.6476 2.78338 23.0876 2.52534C21.5276 2.26731 19.9263 2.50772 18.5092 3.21277C18.4035 3.26416 18.2978 3.32087 18.1939 3.37934C17.9136 3.53401 17.6441 3.70748 17.387 3.89856C17.2954 3.96767 17.2108 4.03678 17.1139 4.10944C16.9048 4.27939 16.7049 4.46039 16.5149 4.65169L7.30789 13.909L6.55737 13.1541L15.7644 3.89679C15.9723 3.68946 16.1907 3.48921 16.4163 3.30492C16.5149 3.22517 16.6136 3.1472 16.7122 3.07278C16.994 2.86306 17.2882 2.67073 17.5931 2.49685C17.7059 2.43306 17.8204 2.37104 17.9349 2.31965C19.5581 1.48235 21.4035 1.18458 23.2056 1.46916C25.0077 1.75375 26.6737 2.60603 27.9637 3.90337C29.2537 5.20071 30.1012 6.87622 30.3844 8.68883C30.6676 10.5014 30.3719 12.3577 29.5397 13.9905C29.4798 14.1057 29.4181 14.2209 29.3635 14.3343L29.1186 14.7312Z" fill="#417AA4"/>
<path d="M8.25735 14.8606L7.50684 14.1057L16.7103 4.8484C16.9192 4.63731 17.141 4.43964 17.3745 4.25653C17.4732 4.17855 17.5754 4.10236 17.6775 4.0297C17.9684 3.82561 18.2734 3.64262 18.5901 3.48213C18.7099 3.42188 18.8297 3.36517 18.9425 3.30492C20.2838 2.71669 21.7702 2.54848 23.2079 2.82222C24.6456 3.09596 25.9681 3.79895 27.0028 4.83958C28.0376 5.88021 28.7368 7.21023 29.0092 8.65631C29.2816 10.1024 29.1146 11.5975 28.5301 12.9467C28.4772 13.069 28.4191 13.1913 28.3539 13.31L28.1337 13.7495L27.3462 12.9556L27.4536 12.7305C27.5065 12.6207 27.5558 12.509 27.5998 12.3974C28.0663 11.2555 28.1865 10.0004 27.9453 8.78993C27.7042 7.57948 27.1124 6.46784 26.2446 5.59491C25.3767 4.72198 24.2715 4.12677 23.0681 3.88421C21.8647 3.64164 20.6168 3.76255 19.4816 4.23171C19.3706 4.27779 19.2614 4.32741 19.1522 4.3788C18.8633 4.51879 18.5853 4.68051 18.3206 4.86257C18.2272 4.92814 18.1356 4.99548 18.044 5.06459C17.833 5.22842 17.6329 5.40601 17.445 5.59621L8.25735 14.8606Z" fill="#417AA4"/>
<path d="M9.21927 15.8228L8.46875 15.0679L17.6722 5.8106C17.8844 5.59807 18.1116 5.40143 18.3523 5.22227C18.4474 5.15139 18.5531 5.08051 18.6712 5.00254C18.9789 4.80398 19.3045 4.63489 19.6437 4.4975C19.7617 4.44965 19.8903 4.40181 20.0383 4.35396C21.0813 4.01202 22.198 3.96713 23.2648 4.22427C24.3316 4.48142 25.3068 5.03056 26.0823 5.81087C26.8579 6.59118 27.4037 7.5722 27.6591 8.64527C27.9145 9.71834 27.8696 10.8416 27.5294 11.8906C27.4818 12.043 27.436 12.1688 27.3884 12.2875L27.1893 12.7837L26.3754 11.9668L26.4547 11.7541C26.4987 11.6318 26.5375 11.5113 26.571 11.3997C26.8126 10.5564 26.8251 9.6634 26.6072 8.8136C26.3893 7.96379 25.949 7.18825 25.332 6.56769C24.7151 5.94712 23.944 5.50421 23.0992 5.28505C22.2543 5.06588 21.3665 5.07847 20.5281 5.32151C20.4136 5.35341 20.2938 5.39416 20.1757 5.43847C19.8726 5.5509 19.5816 5.69399 19.3072 5.86554C19.205 5.92933 19.1134 5.99135 19.0253 6.05337C18.8117 6.2083 18.6109 6.38015 18.4245 6.56727L9.21927 15.8228Z" fill="#417AA4"/>
<path d="M53.3782 24.4279V16.723L49.7666 24.4279H47.0535L43.4453 16.723V24.4279H41.4863V9.32993H40.7058V24.4279H40.1279V8.74869H42.0659V23.8449H42.8463V14.0986L47.427 23.8449H49.386L53.9508 14.0986V23.8449H56.0896V8.74869H56.6903V24.4279H53.3782ZM54.7365 23.2176V9.32993H53.8451L48.4118 20.9618L43.4453 10.3666V12.1581L48.0101 21.9045H48.8117L53.9561 10.9283V12.2946L49.1693 22.4858H47.6313L42.8446 12.2946V8.75046H43.3344L48.4118 19.5689L53.4892 8.75046H55.3144V23.2194L54.7365 23.2176Z" fill="#417AA4"/>
<path d="M56.7837 24.5166H53.2901V17.1182L49.8264 24.5166H46.997L46.9741 24.4652L43.5334 17.1182V24.5166H41.3981V9.41854H40.7938V24.5166H40.0398V8.6601H42.1539V23.7563H42.7582V13.7069L47.4886 23.7563H49.3367L54.0459 13.7052V23.7563H56.0085V8.6601H56.7854L56.7837 24.5166ZM53.4663 24.3394H56.6075V8.8373H56.1829V23.9336H53.8679V14.4973L49.4477 23.9336H47.3758L42.9326 14.4955V23.9336H41.976V8.8373H40.2142V24.3394H40.6159V9.24133H41.5725V24.3394H43.3554V16.3261L47.108 24.3394H49.7137L53.4663 16.3261V24.3394ZM55.4042 23.3062H54.6502V9.41854H53.9032L48.4135 21.1638L43.5352 10.7565V12.1333L48.0682 21.8088H48.7588L54.0441 10.5243V12.3247L49.2327 22.5673H47.5855L42.7653 12.2893V8.6601H43.3977L48.4117 19.3669L53.4328 8.66719H55.4042V23.3062ZM54.8263 23.129H55.228V8.8373H53.5473L48.4117 19.7745L43.2779 8.8373H42.9256V12.268L47.6824 22.3901H49.1076L53.8644 12.268V11.3164L48.868 21.9861H47.9554L43.3572 12.1528V9.96434L48.4117 20.7474L53.7887 9.24133H54.8246L54.8263 23.129Z" fill="#417AA4"/>
<path d="M61.3502 8.88159L65.2701 14.7737L69.301 8.74869H71.4152L65.6225 17.9315L65.5767 18.0219V23.8449H66.3571V17.8429L72.0582 8.88159L72.1463 8.74869H72.8457L72.5568 9.19525L66.9438 18.0219V24.4279H64.9794V18.0219L59.5179 9.33879H58.7833L64.1954 17.8447V24.4297H63.6158V18.0219L57.7139 8.74869H59.828L65.2701 17.3946L70.3475 9.32993H69.6129L65.2701 15.8228L60.8657 9.19525L60.5556 8.74869H61.2603L61.3502 8.88159Z" fill="#417AA4"/>
<path d="M67.032 24.5166H64.8914V18.0467L59.474 9.41855H58.9455L64.2854 17.8164V24.5166H63.5296V18.0467L57.5554 8.65479H59.881L65.2702 17.228L70.1891 9.41855H69.6606L65.2702 15.9858L60.7883 9.25198L60.3813 8.66719H61.3098L61.4243 8.8444L65.2702 14.6142L69.2553 8.6601H71.5774L65.6701 18.0414V23.7564H66.2744V17.8164L66.2885 17.7951L72.1024 8.6601H73.0026L72.6256 9.24489L67.032 18.0467V24.5166ZM65.0729 24.3394H66.8558V17.9954L66.8699 17.9741L72.6838 8.83731H72.2028L72.1394 8.93123L66.4541 17.8678V23.9336H65.4975V18.0007L65.5521 17.8926L71.2602 8.83731H69.347L65.2702 14.9368L61.2181 8.84086H60.7231L60.9363 9.14919L65.2702 15.6669L69.5672 9.24134H70.508L65.2702 17.5594L59.7893 8.83731H57.8813L63.7093 17.9954V24.3394H64.1127V17.8678L58.6283 9.24134H59.5726L59.5973 9.2821L65.0676 17.9954L65.0729 24.3394Z" fill="#417AA4"/>
<path d="M82.5056 8.74869V18.8956C82.5056 20.2831 82.1532 21.6724 81.2582 22.725C80.3633 23.7776 78.9679 24.4279 77.0053 24.4279C74.6657 24.4279 73.0184 23.1733 71.9279 21.963L71.7271 21.7397L72.1499 21.3587L72.3507 21.582C73.3972 22.725 74.8894 23.8449 77.0053 23.8449C78.8305 23.8449 80.0338 23.2407 80.8125 22.3227C81.5912 21.4048 81.9259 20.1963 81.9259 18.8956V9.32638H75.9359V9.9537H81.1472V18.892C81.1472 21.2878 79.4542 23.145 77.0265 23.145C75.0445 23.145 73.776 21.9807 72.8845 21.0185L72.6696 20.8218C73.1594 20.3735 73.6051 19.8808 74.079 19.4325L74.2799 19.6788C74.7467 20.2831 75.8161 21.2737 77.0194 21.2737C77.5275 21.2739 78.022 21.1085 78.4288 20.8023C78.8746 20.4674 79.2075 19.9056 79.2075 18.8991V11.7754H75.3334V11.1711H79.7889V18.8991C79.7889 20.0403 79.3432 20.8253 78.7636 21.2737C78.255 21.6582 77.638 21.8698 77.0018 21.8779C75.6646 21.8779 74.6181 20.9813 74.0174 20.2831L73.4888 20.8147C74.3362 21.6883 75.4039 22.562 77.03 22.562C79.1688 22.562 80.5711 21.0149 80.5711 18.8885V10.5597H75.3334V8.74869H82.5056Z" fill="#417AA4"/>
<path d="M77.0054 24.5166C75.0851 24.5166 73.355 23.6784 71.8628 22.0233L71.6021 21.7326L72.157 21.2347L72.416 21.5235C73.7919 23.0262 75.293 23.7563 77.0054 23.7563C78.6474 23.7563 79.9053 23.2548 80.7457 22.2643C81.4609 21.442 81.8379 20.2778 81.8379 18.8973V9.41854H76.0171V9.86865H81.2284V18.8956C81.2284 21.4119 79.4666 23.2389 77.0195 23.2389C75.071 23.2389 73.799 22.1491 72.8124 21.0841L72.5235 20.8218L72.5957 20.7562C72.8741 20.5011 73.1418 20.2246 73.4008 19.9641C73.5946 19.7656 73.7955 19.5619 73.9981 19.3687L74.0668 19.3031L74.3258 19.6221C74.8825 20.3416 75.9113 21.1815 76.9984 21.1815C77.4842 21.1804 77.9568 21.0219 78.3461 20.7297C78.8482 20.3504 79.0913 19.7515 79.0913 18.8956V11.8605H75.2454V11.079H79.8771V18.8956C79.8771 19.9429 79.5001 20.8112 78.82 21.3392C78.297 21.7357 77.662 21.9542 77.0072 21.963C75.6277 21.963 74.5636 21.0238 74.0122 20.4125L73.6069 20.8218C74.4209 21.6529 75.4674 22.4805 77.023 22.4805C79.0561 22.4805 80.4761 21.0061 80.4761 18.8956V10.6501H75.2454V8.6601H82.5938V18.8956C82.5938 19.9854 82.3735 21.5448 81.3253 22.7835C80.344 23.9176 78.85 24.5166 77.0054 24.5166ZM71.8505 21.7468L71.9932 21.9045C73.4501 23.5207 75.1362 24.3394 77.0054 24.3394C78.7989 24.3394 80.2453 23.7617 81.1914 22.6665C82.2044 21.4704 82.4246 19.9553 82.4246 18.8956V8.8373H75.4216V10.4729H80.6558V18.8956C80.6558 21.1107 79.1636 22.6577 77.0265 22.6577C75.3652 22.6577 74.2729 21.761 73.4237 20.8856L73.3621 20.8218L74.0245 20.1555L74.0861 20.2282C74.5918 20.8094 75.6418 21.7876 77.0054 21.7876C77.6213 21.7785 78.2184 21.5731 78.7108 21.201C79.3486 20.7066 79.7009 19.8879 79.7009 18.8973V11.2562H75.4216V11.6832H79.2746V18.8956C79.2746 19.81 79.0085 20.4567 78.4606 20.8696C78.0407 21.1863 77.5302 21.3578 77.0054 21.3587C75.8585 21.3587 74.775 20.4833 74.1866 19.7338L74.0492 19.5565C73.873 19.7338 73.6968 19.911 73.5206 20.0882C73.281 20.3309 73.0344 20.5826 72.7789 20.82L72.9287 20.9565C73.8959 22.0002 75.1309 23.0617 77.0125 23.0617C79.3486 23.0617 81.0451 21.3091 81.0451 18.8956V10.0459H75.8409V9.24133H82.0071V18.8956C82.0071 20.3132 81.6142 21.5271 80.8725 22.3812C79.9916 23.4108 78.6932 23.9336 76.9966 23.9336C75.2348 23.9336 73.6898 23.184 72.2768 21.6423L72.1412 21.4934L71.8505 21.7468Z" fill="#417AA4"/>
<path d="M99.6247 16.5883C99.6247 20.9334 96.0835 24.4279 91.7196 24.4279C87.3557 24.4279 83.8357 20.9334 83.8357 16.5883C83.8357 12.2432 87.3769 8.74869 91.7196 8.74869C96.0624 8.74869 99.6247 12.2645 99.6247 16.5883ZM84.4153 16.5883C84.4153 20.5755 87.6887 23.8237 91.7196 23.8237C95.7506 23.8237 99.0239 20.5755 99.0239 16.5883C99.0239 12.6012 95.7717 9.35296 91.7196 9.35296C87.6675 9.35296 84.4206 12.6012 84.4206 16.5883H84.4153ZM98.1994 16.5883C98.1994 20.1714 95.3048 22.9678 91.7196 22.9678C88.1344 22.9678 85.2381 20.1679 85.2381 16.5883C85.2381 13.0087 88.1327 10.2089 91.7196 10.2089C95.3066 10.2089 98.2047 13.0034 98.2047 16.5883H98.1994ZM91.7249 10.8078C88.4498 10.8078 85.823 13.3401 85.823 16.5883C85.823 19.8365 88.4498 22.367 91.7249 22.367C95 22.367 97.6251 19.8365 97.6251 16.5883C97.6251 13.3401 95.0194 10.8078 91.7249 10.8078ZM95.2643 12.9591C95.7505 13.4285 96.1373 13.9918 96.4015 14.6153C96.6658 15.2388 96.802 15.9096 96.802 16.5874C96.802 17.2652 96.6658 17.936 96.4015 18.5595C96.1373 19.183 95.7505 19.7464 95.2643 20.2157C94.2838 21.0686 93.0309 21.5379 91.7346 21.5379C90.4383 21.5379 89.1854 21.0686 88.2049 20.2157C87.2482 19.3651 86.6686 18.1105 86.6686 16.5883C86.6686 15.0661 87.2482 13.8097 88.2049 12.9591C89.1913 12.1188 90.442 11.6577 91.7346 11.6577C93.0272 11.6577 94.2779 12.1188 95.2643 12.9591ZM91.7249 12.2414C90.5711 12.2298 89.4533 12.6447 88.5837 13.4075C87.7609 14.1464 87.2482 15.2221 87.2482 16.5972C87.2482 17.9723 87.7609 19.0373 88.5837 19.778C89.4535 20.5403 90.5713 20.9546 91.7249 20.9423C92.8879 20.9572 94.0161 20.543 94.8961 19.778C95.7188 19.0373 96.2315 17.9634 96.2315 16.5972C96.2315 15.2309 95.7188 14.1553 94.8961 13.4075C94.0159 12.6425 92.888 12.2278 91.7249 12.2414Z" fill="#417AA4"/>
<path d="M91.725 24.5166C87.3293 24.5166 83.7529 20.96 83.7529 16.5883C83.7529 12.2166 87.3293 8.6601 91.725 8.6601C96.1206 8.6601 99.7181 12.2166 99.7181 16.5883C99.7181 20.96 96.1311 24.5166 91.725 24.5166ZM91.725 8.8373C87.4262 8.8373 83.9291 12.3141 83.9291 16.5883C83.9291 20.8626 87.4262 24.3394 91.725 24.3394C96.0237 24.3394 99.5419 20.8626 99.5419 16.5883C99.5419 12.3141 96.0342 8.8373 91.725 8.8373ZM91.725 23.9123C87.6482 23.9123 84.3255 20.6269 84.3255 16.5883C84.3255 12.5498 87.6447 9.26614 91.725 9.26614C95.8052 9.26614 99.1244 12.5516 99.1244 16.5901C99.1244 20.6286 95.7999 23.9123 91.725 23.9123ZM91.725 9.44158C87.7451 9.44158 84.5017 12.6473 84.5017 16.5883C84.5017 20.5294 87.7381 23.7351 91.725 23.7351C95.7118 23.7351 98.9482 20.5276 98.9482 16.5883C98.9482 12.649 95.703 9.44335 91.725 9.44335V9.44158ZM91.725 23.0599C88.0411 23.0599 85.1553 20.2246 85.1553 16.5883C85.1553 12.952 88.0411 10.115 91.725 10.115C95.4088 10.115 98.2928 12.9591 98.2928 16.5883C98.2928 20.2175 95.4071 23.0599 91.725 23.0599ZM91.725 10.2922C88.1397 10.2922 85.3315 13.0584 85.3315 16.5883C85.3315 20.1183 88.1397 22.8827 91.725 22.8827C95.3102 22.8827 98.1167 20.1183 98.1167 16.5883C98.1167 13.0584 95.3084 10.2922 91.725 10.2922ZM91.725 22.4556C88.3653 22.4556 85.7349 19.8773 85.7349 16.5883C85.7349 13.2994 88.3653 10.7192 91.725 10.7192C95.0847 10.7192 97.715 13.2976 97.715 16.5883C97.715 19.8791 95.0829 22.4556 91.725 22.4556ZM91.725 10.8964C88.4639 10.8964 85.9111 13.3968 85.9111 16.5883C85.9111 19.7798 88.4639 22.2784 91.725 22.2784C94.986 22.2784 97.5388 19.7781 97.5388 16.5883C97.5388 13.3986 94.9842 10.8964 91.725 10.8964ZM91.725 21.6263C90.4079 21.6406 89.1325 21.1619 88.1468 20.2831C87.1373 19.3846 86.5806 18.0733 86.5806 16.5883C86.5806 15.1033 87.1373 13.7902 88.1468 12.8918C89.1503 12.0389 90.4217 11.5709 91.7355 11.5709C93.0493 11.5709 94.3207 12.0389 95.3243 12.8918C95.8193 13.3697 96.2132 13.9434 96.4823 14.5783C96.7514 15.2133 96.8901 15.8963 96.8901 16.5866C96.8901 17.2768 96.7514 17.9598 96.4823 18.5948C96.2132 19.2297 95.8193 19.8034 95.3243 20.2813C94.3319 21.1632 93.049 21.6425 91.725 21.6263ZM91.725 11.7488C90.4542 11.728 89.2211 12.1827 88.2648 13.0247C87.2923 13.8895 86.7568 15.1512 86.7568 16.5883C86.7568 18.0255 87.2853 19.2872 88.2648 20.1502C89.2293 20.988 90.4612 21.449 91.7355 21.449C93.0099 21.449 94.2417 20.988 95.2062 20.1502C95.6831 19.689 96.0625 19.1358 96.3216 18.5236C96.5808 17.9114 96.7143 17.2528 96.7143 16.5874C96.7143 15.9221 96.5808 15.2635 96.3216 14.6513C96.0625 14.0391 95.6831 13.4859 95.2062 13.0247C94.2434 12.1795 93.0027 11.7242 91.725 11.747V11.7488ZM91.725 21.022C90.5497 21.0351 89.4108 20.6125 88.5256 19.8348C87.6324 19.0338 87.1602 17.9103 87.1602 16.5883C87.1602 15.2664 87.6324 14.1429 88.5256 13.3401C89.4108 12.5624 90.5497 12.1398 91.725 12.1528C92.9058 12.1446 94.0497 12.5663 94.9455 13.3401C95.8387 14.1429 96.3108 15.2646 96.3108 16.5883C96.3108 17.9121 95.8387 19.0338 94.9455 19.8348C94.0501 20.6093 92.9059 21.0311 91.725 21.022ZM91.725 12.33C90.5931 12.3172 89.4962 12.7241 88.6436 13.473C87.7874 14.2403 87.3364 15.3178 87.3364 16.5883C87.3364 17.8589 87.7874 18.9363 88.6436 19.7019C89.4962 20.4508 90.5931 20.8577 91.725 20.8448C92.8626 20.8544 93.965 20.4482 94.8274 19.7019C95.6819 18.9363 96.1347 17.8589 96.1347 16.5883C96.1347 15.3178 95.6819 14.2403 94.8274 13.473C93.965 12.7267 92.8626 12.3205 91.725 12.33Z" fill="#417AA4"/>
<path d="M103.059 8.74869V23.8449H103.853V8.74869H104.433V24.4279H102.481V9.32993H101.7V24.4279H101.122V8.74869H103.059Z" fill="#417AA4"/>
<path d="M104.528 24.5166H102.393V9.41854H101.788V24.5166H101.034V8.6601H103.148V23.7563H103.774V8.6601H104.53L104.528 24.5166ZM102.569 24.3394H104.352V8.8373H103.948V23.9336H102.972V8.8373H101.21V24.3394H101.612V9.24133H102.569V24.3394Z" fill="#417AA4"/>
<path d="M117.512 8.74869V10.5403H107.935V23.8449H117.334V23.2176H108.715V22.6133H117.334V21.986H108.715V17.5062H115.551V16.886H108.715V16.303H115.551V15.6757H108.715V11.1747H117.512V11.7789H109.314V15.0945H116.129V18.0964H109.314V21.4101H117.912V24.435H107.357V9.95724H116.932V9.32993H106.577V24.4279H105.999V8.74869H117.512Z" fill="#417AA4"/>
<path d="M118 24.5166H107.269V9.86865H116.844V9.41854H106.672V24.5166H105.918V8.6601H117.595V10.6289H108.023V23.7563H117.242V23.3062H108.627V22.5248H117.242V22.0747H108.627V17.4177H115.463V16.9676H108.627V16.2073H115.463V15.7572H108.627V11.079H117.595V11.8605H109.404V14.9988H116.219V18.1779H109.404V21.3162H118V24.5166ZM107.445 24.3394H117.824V21.4934H109.228V18.0024H116.043V15.176H109.228V11.6832H117.419V11.2562H108.804V15.58H115.639V16.3845H108.804V16.7903H115.639V17.5949H108.804V21.8974H117.419V22.702H108.804V23.129H117.419V23.9336H107.847V10.4517H117.419V8.8373H106.087V24.3394H106.496V9.24133H117.027V10.0459H107.445V24.3394Z" fill="#417AA4"/>
</g>
<defs>
<clipPath id="clip0_923_821">
<rect width="118" height="32" fill="white"/>
</clipPath>
</defs>
</svg>
