<svg width="222" height="220" viewBox="0 0 222 220" fill="none" xmlns="http://www.w3.org/2000/svg">
<path d="M179.559 32.1784C174.567 26.046 168.905 20.7735 162.769 16.3683L158.803 22.5493C164.304 26.5392 169.383 31.2945 173.872 36.8084C201.742 71.0436 196.564 121.57 162.328 149.44C128.093 177.311 77.5661 172.132 49.6961 137.897C21.826 103.661 27.0043 53.135 61.2397 25.2647C81.9463 8.40797 108.611 3.64575 132.62 10.0855L133.914 2.84598C107.867 -3.93944 79.0368 1.31985 56.6098 19.5772C19.2383 50.0004 13.5855 105.155 44.0086 142.527C74.4317 179.898 129.587 185.551 166.958 155.128C204.33 124.705 209.982 69.5499 179.559 32.1784Z" fill="#AFDDD8"/>
<path d="M162.655 45.9397C150.985 31.6047 134.527 23.4151 117.435 21.7888L117.427 29.154C132.385 30.7519 146.743 38.0094 156.968 50.5697C177.534 75.8328 173.712 113.117 148.45 133.683C123.187 154.248 85.9028 150.427 65.3367 125.164C44.7708 99.9012 48.592 62.6172 73.8547 42.0514C81.9617 35.4516 91.3071 31.3677 100.94 29.6934L100.447 22.3377C89.3445 24.1322 78.5553 28.7682 69.2247 36.3639C40.826 59.4827 36.5305 101.395 59.6493 129.794C82.768 158.193 124.681 162.489 153.079 139.37C181.478 116.251 185.774 74.3385 162.655 45.9397Z" fill="#AFDDD8"/>
<path d="M94.3371 122.378C89.7081 120.01 85.4827 116.676 81.9947 112.391C68.5207 95.84 71.0242 71.4124 87.5756 57.9383C104.127 44.4641 128.555 46.9678 142.029 63.5191C155.503 80.0704 152.999 104.498 136.447 117.972C131.807 121.75 126.546 124.271 121.082 125.579L122.299 132.817C128.978 131.297 135.416 128.269 141.078 123.66C160.765 107.632 163.743 78.5767 147.716 58.889C131.689 39.2013 102.633 36.2237 82.9456 52.2509C63.2583 68.2778 60.2801 97.3337 76.3073 117.021C80.4423 122.101 85.4489 126.058 90.9339 128.874L94.3371 122.378Z" fill="#AFDDD8"/>
<path d="M131.976 71.1768C128.658 67.1004 124.303 64.3565 119.597 63.0044L118.238 70.2556C121.295 71.2687 124.109 73.1292 126.289 75.8068C132.388 83.2984 131.255 94.3553 123.763 100.454C116.271 106.553 105.214 105.42 99.1156 97.9279C93.0169 90.4364 94.1503 79.3798 101.642 73.281C103.249 71.9729 105.02 71 106.871 70.3486L104.658 63.3527C101.95 64.276 99.3575 65.6842 97.0119 67.5936C86.384 76.2455 84.7767 91.9304 93.4282 102.558C102.08 113.186 117.765 114.793 128.393 106.142C139.021 97.4898 140.628 81.8046 131.976 71.1768Z" fill="#AFDDD8"/>
<path d="M193.016 72.1145L173.721 76.0018L174.928 81.993L194.223 78.1057L193.016 72.1145Z" fill="#AFDDD8"/>
<path d="M50.3687 29.4255L46.449 34.114L61.2538 46.4912L65.1735 41.8027L50.3687 29.4255Z" fill="#AFDDD8"/>
<path d="M68.4267 87.9169L50.063 89.0743L50.4474 95.1733L68.8111 94.0159L68.4267 87.9169Z" fill="#AFDDD8"/>
<path d="M85.0818 144.775L78.4319 165.163L84.2417 167.058L90.8917 146.67L85.0818 144.775Z" fill="#AFDDD8"/>
<path d="M151.91 81.0541L134.213 82.0627L134.561 88.1641L152.258 87.1555L151.91 81.0541Z" fill="#AFDDD8"/>
<path d="M151.994 2.5885L152.533 3.06782C154.115 4.47272 154.259 6.916 152.854 8.49727L143.348 19.197C141.943 20.7782 139.5 20.9226 137.918 19.5177L137.379 19.0383C135.798 17.6334 135.653 15.1902 137.058 13.6089L146.565 2.90921C147.969 1.32793 150.413 1.1836 151.994 2.5885Z" fill="#F688BD"/>
<path d="M152.709 3.28768C154.061 4.90535 153.911 7.30751 152.511 8.8837L148.124 13.8215C148.111 13.8357 148.09 13.8371 148.075 13.8244L141.837 8.28192C141.823 8.26937 141.821 8.24764 141.834 8.23335L146.325 3.179C148.001 1.29267 151.028 1.27578 152.709 3.28768Z" fill="#F3F3FF"/>
<path d="M139.536 17.0816C138.773 17.5695 137.76 17.3472 137.272 16.585C136.784 15.8229 137.007 14.8095 137.769 14.3216C138.531 13.8337 139.544 14.0561 140.032 14.8182C140.52 15.5803 140.298 16.5937 139.536 17.0816Z" fill="white"/>
<path d="M140.768 13.6984C140.321 13.9847 139.727 13.8542 139.44 13.4072C139.154 12.96 139.285 12.3655 139.732 12.0793C140.179 11.7931 140.773 11.9234 141.06 12.3705C141.346 12.8177 141.215 13.4123 140.768 13.6984Z" fill="white"/>
<path d="M148.124 14.3463C148 14.3463 147.875 14.3027 147.775 14.2138L141.486 8.62569C141.269 8.43317 141.25 8.10129 141.442 7.8848C141.635 7.66768 141.966 7.64818 142.183 7.84095L148.472 13.429C148.689 13.6215 148.709 13.9534 148.516 14.1699C148.412 14.2869 148.268 14.3463 148.124 14.3463Z" fill="#333333"/>
<path d="M46.0759 211.411C45.1128 212.902 43.105 213.334 41.6139 212.371L32.8556 206.713C31.3646 205.75 30.9326 203.742 31.8957 202.251C32.8588 200.76 34.8666 200.328 36.3578 201.291L45.1161 206.949C46.6071 207.912 47.039 209.92 46.0759 211.411Z" fill="#F688BD"/>
<path d="M45.7794 211.802C44.7109 213.016 42.872 213.183 41.5133 212.306L37.2567 209.556C37.2444 209.548 37.2409 209.532 37.2489 209.52L40.7223 204.142C40.7303 204.13 40.7466 204.126 40.7587 204.134L45.1158 206.949C46.7419 207.999 47.1083 210.292 45.7794 211.802Z" fill="#F3F3FF"/>
<path d="M33.7815 203.426C33.3225 202.905 33.3726 202.11 33.8936 201.651C34.4145 201.192 35.2088 201.242 35.6677 201.763C36.1267 202.284 36.0766 203.079 35.5557 203.538C35.0349 203.996 34.2405 203.946 33.7815 203.426Z" fill="white"/>
<path d="M36.4908 203.965C36.2215 203.659 36.251 203.193 36.5565 202.924C36.8621 202.654 37.3281 202.684 37.5974 202.989C37.8667 203.295 37.8372 203.761 37.5317 204.03C37.2261 204.3 36.7601 204.27 36.4908 203.965Z" fill="white"/>
<path d="M37.2563 210.081C37.1588 210.081 37.0602 210.054 36.9721 209.997C36.7286 209.84 36.6588 209.515 36.8159 209.272L40.3181 203.85C40.4753 203.606 40.8007 203.537 41.0436 203.694C41.2871 203.851 41.3571 204.176 41.1998 204.419L37.6977 209.841C37.5974 209.997 37.4286 210.081 37.2563 210.081Z" fill="#333333"/>
<path d="M210.375 142.368C209.171 143.942 206.898 144.245 205.324 143.041L196.077 135.97C194.503 134.767 194.2 132.494 195.404 130.919C196.608 129.345 198.88 129.042 200.455 130.246L209.701 137.317C211.276 138.521 211.579 140.794 210.375 142.368Z" fill="#F688BD"/>
<path d="M210.01 142.777C208.714 144.034 206.652 144.057 205.218 142.96L200.724 139.524C200.711 139.514 200.709 139.495 200.719 139.482L205.06 133.805C205.07 133.792 205.088 133.789 205.101 133.799L209.701 137.317C211.418 138.63 211.623 141.214 210.01 142.777Z" fill="#F3F3FF"/>
<path d="M197.399 132.393C196.934 131.773 197.06 130.893 197.68 130.428C198.301 129.963 199.18 130.09 199.645 130.71C200.11 131.33 199.984 132.21 199.363 132.675C198.743 133.139 197.864 133.013 197.399 132.393Z" fill="white"/>
<path d="M200.366 133.233C200.094 132.869 200.167 132.353 200.531 132.08C200.895 131.808 201.411 131.882 201.684 132.245C201.957 132.609 201.883 133.125 201.519 133.398C201.155 133.671 200.639 133.597 200.366 133.233Z" fill="white"/>
<path d="M200.723 140.048C200.613 140.048 200.5 140.013 200.405 139.94C200.175 139.764 200.131 139.435 200.307 139.205L204.684 133.48C204.86 133.251 205.19 133.206 205.42 133.382C205.651 133.558 205.694 133.888 205.518 134.118L201.141 139.842C201.038 139.978 200.882 140.048 200.723 140.048Z" fill="#333333"/>
<path d="M17.6232 37.6273C16.9772 35.7538 17.9815 33.6925 19.855 33.0465L30.8597 29.2521C32.7331 28.6061 34.7944 29.6104 35.4404 31.4839C36.0864 33.3573 35.0821 35.4186 33.2087 36.0646L22.2038 39.859C20.3305 40.505 18.2692 39.5007 17.6232 37.6273Z" fill="#F688BD"/>
<path d="M17.4837 37.0974C17.1537 35.3221 18.274 33.5918 19.9812 33.0032L25.3296 31.1591C25.345 31.1538 25.3618 31.162 25.367 31.1774L27.6967 37.9342C27.7021 37.9496 27.6939 37.9664 27.6785 37.9716L22.2039 39.8592C20.1607 40.5636 17.8942 39.3052 17.4837 37.0974Z" fill="#F3F3FF"/>
<path d="M33.1098 32.3314C33.8836 32.2871 34.5467 32.8786 34.5909 33.6524C34.6352 34.4262 34.0437 35.0894 33.2699 35.1336C32.4961 35.1778 31.8329 34.5863 31.7887 33.8125C31.7444 33.0387 32.3358 32.3756 33.1098 32.3314Z" fill="white"/>
<path d="M30.7688 34.3394C31.2228 34.3134 31.6118 34.6605 31.6378 35.1144C31.6637 35.5684 31.3167 35.9574 30.8627 35.9834C30.4088 36.0093 30.0197 35.6623 29.9938 35.2083C29.968 34.7544 30.3149 34.3653 30.7688 34.3394Z" fill="white"/>
<path d="M27.6786 38.4967C27.4609 38.4967 27.2574 38.3601 27.1824 38.1427L24.8335 31.3301C24.739 31.0558 24.8846 30.7572 25.1586 30.6627C25.4328 30.5687 25.7314 30.7138 25.8258 30.9877L28.1747 37.8003C28.2692 38.0745 28.1236 38.3731 27.8496 38.4676C27.793 38.4871 27.7354 38.4967 27.6786 38.4967Z" fill="#333333"/>
<path d="M131.971 121.704C131.689 121.704 131.456 121.375 131.447 121.091C131.406 119.863 131.43 118.566 131.517 117.339C131.538 117.05 131.794 116.808 132.079 116.827C132.368 116.847 132.585 117.085 132.565 117.374C132.479 118.565 132.456 119.871 132.496 121.063C132.506 121.353 132.279 121.704 131.989 121.704C131.983 121.704 131.977 121.704 131.971 121.704Z" fill="#333333"/>
<path d="M141.055 163.114C164.365 160.295 180.062 156.676 187.957 174.158C195.852 191.641 176.834 210.494 130.262 215.476C83.6889 220.457 15.5491 198.459 28.7356 168.143C37.8528 147.183 75.5434 163.819 75.5434 163.819L83.8146 159.872L133.442 157.616L141.055 163.114Z" fill="#52B0A5"/>
<path d="M120.179 189.531C119.99 189.531 119.808 189.429 119.714 189.25C119.579 188.993 119.677 188.676 119.934 188.541C122.32 187.287 125.012 185.845 127.863 184.318C138.635 178.548 150.843 172.008 156.112 170.409C162.758 168.391 165.879 168.603 166.008 168.612C166.298 168.635 166.514 168.887 166.492 169.176C166.469 169.465 166.212 169.678 165.928 169.659C165.899 169.658 162.839 169.464 156.417 171.413C151.248 172.982 138.556 179.781 128.359 185.243C125.506 186.771 122.812 188.214 120.423 189.47C120.345 189.511 120.261 189.531 120.179 189.531Z" fill="#333333"/>
<path d="M151.175 173.329C150.896 173.329 150.664 173.11 150.651 172.828C150.523 170.008 153.878 166.978 154.021 166.851C154.238 166.658 154.569 166.677 154.762 166.893C154.955 167.109 154.936 167.44 154.721 167.634C154.689 167.661 151.594 170.459 151.7 172.781C151.713 173.07 151.489 173.315 151.199 173.329C151.191 173.329 151.183 173.329 151.175 173.329Z" fill="#333333"/>
<path d="M107.744 192.856C107.62 192.856 107.495 192.812 107.395 192.722C102.761 188.585 92.9282 182.418 81.7344 176.628C70.4469 170.79 60.9942 167.032 57.0658 166.82C56.7764 166.804 56.5546 166.557 56.5701 166.267C56.5858 165.978 56.8285 165.756 57.1227 165.771C66.3977 166.273 98.4821 183.357 108.094 191.939C108.31 192.132 108.329 192.464 108.136 192.68C108.032 192.796 107.888 192.856 107.744 192.856Z" fill="#333333"/>
<path d="M87.1524 169.187C87.0798 169.187 87.0063 169.172 86.936 169.14C86.9227 169.134 85.4844 168.487 75.3434 164.304C75.0754 164.194 74.9477 163.887 75.0585 163.619C75.1689 163.351 75.4754 163.223 75.7439 163.334C85.9425 167.541 87.3165 168.16 87.37 168.184C87.6339 168.304 87.7506 168.615 87.631 168.879C87.5429 169.073 87.352 169.187 87.1524 169.187Z" fill="#333333"/>
<path d="M130.703 169.306C130.54 169.306 130.38 169.23 130.277 169.088C130.108 168.853 130.16 168.525 130.395 168.356C130.625 168.189 136.076 164.267 140.885 162.618C141.16 162.523 141.458 162.67 141.552 162.944C141.646 163.219 141.5 163.517 141.226 163.611C136.563 165.21 131.065 169.166 131.01 169.206C130.917 169.273 130.81 169.306 130.703 169.306Z" fill="#333333"/>
<path d="M83.5809 147.953C82.3821 153.144 78.1589 162.686 78.1589 162.686C78.1589 162.686 94.3109 168.543 110.11 167.479C110.2 167.472 110.287 167.465 110.376 167.462C110.466 167.465 110.553 167.472 110.642 167.479C126.442 168.543 142.597 162.686 142.597 162.686C142.597 162.686 138.552 153.894 137.024 148.484C119.525 145.242 101.063 144.985 83.5809 147.953Z" fill="#FFAAA7"/>
<path d="M211.146 178.72C209.763 177.215 206.961 172.97 206.961 172.97C213.385 174.225 215.759 170.859 215.759 170.859L211.409 166.556C211.409 166.556 201.49 167.31 201.574 161.384C201.648 156.172 207.393 159.565 209.076 160.752C210.759 161.939 212.188 161.486 213.357 159.185C214.526 156.884 207.858 150.795 203.205 150.21C199.939 149.799 196.185 150.849 194.236 151.512C191.679 150.323 168.915 139.125 166.955 135.64C163.645 129.753 160.333 117.902 155.021 108.681L142.418 125.585C142.418 125.585 140.651 131.107 139.035 136.312C142.391 144.352 146.509 152.557 150.49 156.096C154.926 160.04 165.326 164.956 174.716 168.923C178.534 171.211 182.446 173.766 182.572 173.889C185.002 176.267 188.816 183.081 190.943 188.891C193.07 194.701 195.58 195.967 196.891 195.002C198.202 194.036 198.35 192.074 197.087 189.381C196.262 187.622 195.73 183.497 195.73 183.497C195.73 183.497 205.21 194.14 208.146 195.909C211.082 197.677 213.435 197.094 214.392 194.593C215.349 192.093 206.88 184.305 206.88 184.305C206.88 184.305 213.894 188.118 216.594 188.863C219.294 189.608 220.493 188.337 221.039 185.848C221.584 183.36 212.53 180.225 211.146 178.72Z" fill="#FFAAA7"/>
<path d="M215.053 171.395C217.848 169.227 216.306 159.614 213.357 159.185C210.408 158.756 209.439 164.348 209.851 167.89" fill="#FFAAA7"/>
<path d="M206.88 184.305C203.767 181.769 200.864 177.63 200.864 177.63L206.88 184.305Z" fill="#FFB5A9"/>
<path d="M206.88 184.83C206.763 184.83 206.646 184.791 206.548 184.712C203.415 182.159 200.555 178.103 200.434 177.931C200.268 177.694 200.326 177.367 200.563 177.2C200.801 177.034 201.127 177.091 201.294 177.329C201.323 177.369 204.192 181.439 207.211 183.898C207.436 184.081 207.47 184.412 207.287 184.636C207.183 184.764 207.032 184.83 206.88 184.83Z" fill="#2E333F"/>
<path d="M193.197 181.408C193.197 181.408 196.916 180.012 202.007 176.206L193.197 181.408Z" fill="#FFB5A9"/>
<path d="M193.197 181.933C192.984 181.933 192.784 181.803 192.705 181.593C192.603 181.322 192.74 181.019 193.012 180.917C193.048 180.903 196.731 179.495 201.693 175.786C201.925 175.612 202.254 175.66 202.427 175.892C202.601 176.124 202.553 176.453 202.321 176.626C197.229 180.433 193.536 181.842 193.381 181.9C193.32 181.922 193.258 181.933 193.197 181.933Z" fill="#2E333F"/>
<path d="M197.651 167.394C195.947 167.394 193.237 166.913 190.019 164.612C189.783 164.443 189.728 164.115 189.897 163.88C190.065 163.644 190.393 163.589 190.629 163.758C195.613 167.321 199.205 166.165 199.242 166.152C199.517 166.061 199.814 166.206 199.907 166.481C200 166.756 199.853 167.054 199.579 167.147C199.511 167.169 198.815 167.394 197.651 167.394Z" fill="#333333"/>
<path d="M9.91562 178.72C11.2989 177.215 14.1014 172.97 14.1014 172.97C7.67753 174.225 5.30356 170.859 5.30356 170.859L9.65304 166.556C9.65304 166.556 19.5723 167.31 19.4879 161.384C19.4137 156.172 13.669 159.565 11.986 160.752C10.303 161.939 8.87402 161.486 7.7051 159.185C6.53607 156.884 13.2042 150.795 17.8572 150.21C21.1233 149.799 24.8772 150.849 26.8263 151.512C29.3829 150.323 52.1468 139.125 54.1072 135.64C57.4168 129.753 60.7297 117.902 66.0416 108.681L78.6445 125.585C78.6445 125.585 80.4107 131.107 82.0273 136.312C78.6711 144.352 74.5533 152.557 70.5719 156.096C66.1358 160.04 55.7359 164.956 46.3457 168.923C42.5284 171.211 38.6162 173.766 38.49 173.889C36.0605 176.267 32.2464 183.081 30.1192 188.891C27.9921 194.701 25.4826 195.967 24.1716 195.002C22.8606 194.036 22.7118 192.074 23.9752 189.381C24.8004 187.622 25.3319 183.497 25.3319 183.497C25.3319 183.497 15.8522 194.14 12.9161 195.909C9.97983 197.677 7.62747 197.094 6.67046 194.593C5.71332 192.093 14.1824 184.305 14.1824 184.305C14.1824 184.305 7.16865 188.118 4.46839 188.863C1.76814 189.608 0.569044 188.337 0.0236514 185.848C-0.521741 183.36 8.53245 180.225 9.91562 178.72Z" fill="#FFAAA7"/>
<path d="M6.00905 171.395C3.21365 169.227 4.75655 159.614 7.7051 159.185C10.6536 158.756 11.6234 164.348 11.2108 167.89" fill="#FFAAA7"/>
<path d="M14.1821 184.305C17.2953 181.769 20.1977 177.63 20.1977 177.63L14.1821 184.305Z" fill="#FFB5A9"/>
<path d="M14.1824 184.83C14.03 184.83 13.879 184.764 13.7751 184.636C13.5922 184.412 13.6258 184.081 13.8506 183.898C16.8697 181.439 19.7394 177.369 19.7681 177.329C19.9344 177.091 20.2616 177.034 20.4992 177.2C20.7365 177.367 20.7939 177.694 20.6276 177.931C20.5073 178.103 17.6473 182.159 14.5137 184.712C14.4163 184.791 14.299 184.83 14.1824 184.83Z" fill="#2E333F"/>
<path d="M27.8653 181.408C27.8653 181.408 24.1459 180.012 19.0547 176.206L27.8653 181.408Z" fill="#FFB5A9"/>
<path d="M27.8652 181.933C27.8039 181.933 27.7416 181.922 27.6807 181.9C27.5261 181.842 23.8329 180.433 18.7404 176.626C18.5083 176.453 18.4607 176.124 18.6342 175.892C18.8079 175.66 19.1367 175.612 19.3689 175.786C24.3306 179.495 28.0135 180.903 28.0501 180.917C28.3213 181.019 28.4585 181.322 28.3565 181.593C28.2773 181.803 28.0774 181.933 27.8652 181.933Z" fill="#2E333F"/>
<path d="M23.4111 167.394C22.2464 167.394 21.5511 167.169 21.4834 167.147C21.2089 167.054 21.0618 166.756 21.1549 166.481C21.2477 166.207 21.5438 166.06 21.8184 166.152C21.8706 166.168 25.4952 167.288 30.4328 163.758C30.6685 163.59 30.9963 163.644 31.165 163.88C31.3336 164.116 31.279 164.443 31.0432 164.612C27.8252 166.913 25.1156 167.394 23.4111 167.394Z" fill="#333333"/>
<path d="M120.104 191.219C124.481 190.777 144.326 188.79 151.084 186.677C157.842 184.565 156.522 189.468 156.522 189.468C161.609 203.302 148.942 217.445 146.317 217.652C144.266 217.814 120.945 217.211 110.856 216.94C107.794 216.858 104.752 216.425 101.788 215.65C98.2394 214.722 90.1486 214.536 85.032 213.176C85.8137 199.391 88.5922 191.375 97.8932 185.125C101.075 186.828 115.726 191.662 120.104 191.219Z" fill="#FFAAA7"/>
<path d="M110.906 216.817C120.655 216.691 141.638 215.467 145.663 212.395C149.688 209.323 151.894 194.848 150.402 191.456C148.909 188.063 144.984 188.011 144.984 188.011C144.984 188.011 148.97 186.174 154.519 185.478C162.186 184.516 162.953 192.4 162.953 192.4C162.953 192.4 164.401 205.173 156.232 215.095C148.062 225.016 110.906 216.817 110.906 216.817Z" fill="#2E333F"/>
<path d="M145.331 189.214C147.334 187.969 150.543 187.185 151.704 189.388C152.448 190.8 151.538 194.019 150.734 194.139L150.868 197.361C150.868 197.361 152.782 200.077 150.109 201.81C150.109 201.81 151.703 203.715 150.049 205.408C150.049 205.408 151.558 207.692 149.414 208.806C149.414 208.806 151.117 212.423 145.143 212.743L145.331 189.214Z" fill="#FFAAA7"/>
<path d="M146.778 187.631C146.181 188.667 142.942 190.78 143.207 192.427C143.602 194.876 148.15 193.638 151.195 193.953C154.239 194.268 152.455 197.775 152.455 197.775C152.455 197.775 147.042 197.603 144.944 198.409C142.846 199.215 137.491 207.517 136.123 212.819C134.754 218.121 131.832 217.373 131.832 217.373L127.906 217.358C127.906 217.358 129.095 197.105 138.08 188.991L146.778 187.631Z" fill="#2E333F"/>
<path d="M144.236 209.259C144.151 209.256 144.071 209.203 144.039 209.119C143.996 209.007 144.052 208.881 144.165 208.837C146.294 208.02 149.011 208.453 149.125 208.471C149.244 208.491 149.324 208.603 149.305 208.721C149.286 208.84 149.166 208.918 149.055 208.902C149.026 208.896 146.337 208.47 144.321 209.245C144.293 209.256 144.264 209.26 144.236 209.259Z" fill="#2E333F"/>
<path d="M144.242 209.653L144.225 209.652C143.976 209.644 143.76 209.49 143.672 209.26C143.613 209.108 143.617 208.942 143.684 208.793C143.75 208.643 143.871 208.529 144.024 208.47C144.928 208.123 146.026 207.946 147.288 207.946C148.279 207.946 149.042 208.059 149.185 208.082C149.521 208.138 149.747 208.453 149.694 208.784C149.642 209.105 149.326 209.336 148.997 209.291C148.982 209.289 148.254 209.174 147.289 209.174C146.186 209.174 145.209 209.325 144.462 209.612C144.397 209.638 144.321 209.653 144.242 209.653Z" fill="#333333"/>
<path d="M145.241 201.655C145.149 201.652 145.064 201.59 145.038 201.495C145.006 201.379 145.074 201.258 145.19 201.226C146.756 200.796 148.796 201.068 148.882 201.08C149.001 201.097 149.085 201.207 149.069 201.327C149.052 201.446 148.937 201.528 148.823 201.513C148.803 201.508 146.784 201.24 145.306 201.648C145.285 201.653 145.263 201.655 145.241 201.655Z" fill="#2E333F"/>
<path d="M145.248 202.048L145.227 202.048C144.959 202.04 144.729 201.859 144.658 201.599C144.57 201.273 144.762 200.936 145.085 200.847C145.704 200.677 146.454 200.591 147.313 200.591C148.224 200.591 148.931 200.69 148.938 200.691C149.269 200.736 149.504 201.045 149.459 201.378C149.414 201.707 149.107 201.947 148.772 201.903L148.748 201.9C148.654 201.888 148.057 201.816 147.312 201.816C146.56 201.816 145.92 201.887 145.411 202.027C145.347 202.042 145.297 202.048 145.248 202.048Z" fill="#333333"/>
<path d="M145.01 205.502C144.909 205.499 144.822 205.427 144.802 205.325C144.78 205.207 144.858 205.093 144.976 205.07C146.014 204.875 148.653 205.04 150.072 205.191C150.192 205.203 150.279 205.311 150.265 205.431C150.253 205.55 150.154 205.639 150.026 205.624C148.527 205.467 145.995 205.321 145.058 205.499C145.041 205.501 145.025 205.503 145.01 205.502Z" fill="#2E333F"/>
<path d="M150.052 206.019C150.029 206.019 150.006 206.018 149.982 206.015C149.016 205.914 147.529 205.811 146.391 205.811C145.675 205.811 145.31 205.851 145.131 205.885C145.093 205.892 145.054 205.896 145.017 205.896C144.71 205.887 144.471 205.683 144.416 205.4C144.352 205.068 144.57 204.747 144.901 204.683C145.241 204.62 145.745 204.587 146.402 204.587C147.586 204.587 149.12 204.694 150.113 204.799C150.275 204.816 150.421 204.895 150.524 205.023C150.627 205.15 150.674 205.31 150.657 205.473C150.624 205.784 150.365 206.019 150.052 206.019Z" fill="#333333"/>
<path d="M111.413 34.1083C111.413 34.1083 93.4249 31.0314 88.6913 47.3625C83.9576 63.6936 85.141 80.4981 101.945 81.2082C118.75 81.9182 130.347 82.3916 132.478 69.1374C134.608 55.8831 132.714 34.5816 111.413 34.1083Z" fill="#333333"/>
<path d="M139.035 136.312C140.651 131.107 142.417 125.585 142.417 125.585L155.02 108.682L157.505 105.349C147.922 95.2305 134.075 87.7765 125.733 89.1968L110.376 93.1716L95.0224 89.1968C86.6803 87.7765 72.8334 95.2305 63.2473 105.349L78.3349 125.585C78.3349 125.585 83.1279 142.213 83.8397 145.23C83.9722 145.795 83.8563 146.759 83.5806 147.953C101.063 144.985 119.525 145.242 137.024 148.484C136.57 146.877 136.338 145.568 136.5 144.877C136.796 143.617 137.877 140.044 139.035 136.312Z" fill="white"/>
<path d="M137.024 149.009C136.993 149.009 136.961 149.006 136.929 149C127.634 147.278 118.098 146.405 108.586 146.405C100.123 146.405 91.7399 147.1 83.6687 148.47C83.4964 148.501 83.3191 148.441 83.1989 148.313C83.0784 148.185 83.0297 148.006 83.0695 147.835C83.4147 146.339 83.4011 145.658 83.3288 145.35C82.6555 142.496 78.2418 127.158 77.8571 125.822L62.8267 105.662C62.6742 105.458 62.6909 105.173 62.8665 104.987C71.9188 95.4328 84.5303 88.4979 92.8538 88.4979C93.645 88.4979 94.4042 88.5589 95.1109 88.6791C95.1255 88.6817 95.1398 88.6847 95.1542 88.6883L110.376 92.6293L125.602 88.6883C125.616 88.6847 125.631 88.6816 125.645 88.6791C126.352 88.5589 127.111 88.4979 127.902 88.4979C136.227 88.4979 148.837 95.4328 157.886 104.988C158.062 105.173 158.078 105.458 157.926 105.662L142.891 125.829C142.663 126.541 141.026 131.67 139.536 136.468C138.11 141.063 137.261 143.933 137.011 144.997C136.939 145.305 136.91 146.149 137.529 148.341C137.579 148.515 137.534 148.703 137.412 148.837C137.312 148.948 137.17 149.009 137.024 149.009ZM108.586 145.356C117.884 145.356 127.204 146.184 136.304 147.819C135.946 146.385 135.843 145.379 135.989 144.757C136.245 143.67 137.101 140.776 138.533 136.157C140.132 131.008 141.9 125.481 141.917 125.425C141.935 125.37 141.962 125.318 141.997 125.271L156.819 105.39C147.975 96.1909 135.873 89.5477 127.902 89.5477C127.178 89.5477 126.485 89.6022 125.843 89.7104L110.508 93.6795C110.422 93.7015 110.331 93.7015 110.245 93.6795L94.913 89.7104C94.2707 89.6022 93.578 89.5477 92.8538 89.5477C84.884 89.5477 72.7807 96.1909 63.9334 105.39L78.7559 125.271C78.7935 125.322 78.822 125.379 78.8395 125.44C79.0352 126.119 83.6443 142.114 84.3507 145.109C84.4668 145.604 84.4348 146.327 84.2523 147.309C92.1474 146.012 100.329 145.356 108.586 145.356Z" fill="#333333"/>
<path d="M128.482 72.8358C127.07 72.9912 126.088 72.3304 125.408 71.317C125.07 72.4734 122.536 78.6642 118.026 80.9524C117.962 83.1763 117.994 84.9465 118.182 86.2631C118.278 86.9436 118.416 87.5058 118.598 87.9421C118.825 88.4895 119.126 88.8445 119.511 89.0097C120.933 89.6334 125.465 89.4633 125.465 89.4633C125.465 89.4633 120.401 104.565 108.67 102.075C96.9361 99.5893 94.934 89.3746 94.934 89.3746C94.934 89.3746 100.136 89.276 101.204 87.8583C101.86 86.9782 101.672 82.5969 101.433 79.8774C99.2832 78.8122 95.5405 72.313 95.3062 71.1296C94.6232 72.249 93.6099 73.0009 92.1059 72.8357C87.308 72.3031 86.8641 66.2601 88.3731 63.9475C89.7488 61.8469 92.8037 61.371 94.288 63.1683C94.1105 60.7792 94.0907 59.147 94.0907 59.147C94.0907 59.147 109.064 44.1393 111.729 44.053C115.691 43.9199 126.798 60.1282 126.798 60.1282C126.798 60.1282 126.853 61.1144 126.784 62.6998C128.371 61.4769 130.98 62.0538 132.215 63.9473C133.732 66.2602 133.283 72.3032 128.482 72.8358Z" fill="#FFAAA7"/>
<path d="M126.442 68.8291C126.415 68.8291 126.389 68.8274 126.362 68.8233C126.076 68.7795 125.878 68.5119 125.922 68.2254C126.152 66.7143 126.746 65.6205 127.687 64.9741C128.951 64.1056 130.36 64.4015 130.419 64.4142C130.703 64.4764 130.882 64.7564 130.82 65.0393C130.758 65.322 130.48 65.5009 130.197 65.4404C130.178 65.4368 129.15 65.2356 128.271 65.8467C127.585 66.3236 127.143 67.1771 126.96 68.3834C126.92 68.6431 126.697 68.8291 126.442 68.8291Z" fill="#333333"/>
<path d="M110.995 72.7788C110.198 72.7788 109.305 72.6786 108.305 72.4441C108.023 72.378 107.848 72.0956 107.914 71.8131C107.98 71.5309 108.262 71.3557 108.545 71.422C114.425 72.8016 115.951 69.1464 116.013 68.9904C116.119 68.7221 116.423 68.5884 116.692 68.6942C116.961 68.7995 117.095 69.101 116.991 69.3705C116.976 69.4102 115.614 72.7788 110.995 72.7788Z" fill="#333333"/>
<path d="M117.655 70.0616C117.549 70.0616 117.442 70.0296 117.349 69.9633L115.308 68.4986C115.073 68.3297 115.019 68.0017 115.188 67.7662C115.356 67.5309 115.684 67.4765 115.92 67.6457L117.961 69.1103C118.197 69.2793 118.251 69.6073 118.082 69.8428C117.979 69.9855 117.818 70.0616 117.655 70.0616Z" fill="#333333"/>
<path d="M94.711 69.6177C94.4493 69.6177 94.223 69.4225 94.1907 69.1559C93.8634 66.4552 91.7194 65.3985 90.6314 65.2171C90.3456 65.1694 90.1525 64.899 90.2001 64.6131C90.2478 64.3275 90.5161 64.1349 90.8041 64.1817C92.1601 64.4077 94.8306 65.7119 95.2327 69.0299C95.2676 69.3174 95.0625 69.5791 94.7747 69.614C94.7535 69.6165 94.7323 69.6177 94.711 69.6177Z" fill="#333333"/>
<path d="M108.09 51.901C107.912 51.901 107.738 51.8102 107.639 51.6463C107.49 51.3977 107.571 51.0753 107.819 50.9261C111.478 48.7308 111.12 43.7476 111.116 43.6975C111.093 43.4086 111.308 43.1555 111.597 43.1316C111.882 43.1083 112.138 43.322 112.163 43.6109C112.182 43.8416 112.585 49.2911 108.36 51.8262C108.275 51.8769 108.182 51.901 108.09 51.901Z" fill="#333333"/>
<path d="M137.657 111.622C139.314 114.817 142.139 117.05 143.219 124.639C144.785 135.645 134.371 138.13 134.371 138.13" fill="white"/>
<path d="M134.37 138.655C134.133 138.655 133.918 138.493 133.86 138.252C133.793 137.97 133.967 137.687 134.249 137.62C134.655 137.522 144.178 135.104 142.699 124.714C141.91 119.172 140.185 116.566 138.662 114.267C138.129 113.462 137.625 112.701 137.191 111.864C137.057 111.606 137.158 111.289 137.415 111.156C137.673 111.023 137.99 111.123 138.123 111.38C138.531 112.168 139.02 112.906 139.538 113.688C141.121 116.079 142.917 118.79 143.739 124.566C145.353 135.914 134.602 138.615 134.493 138.641C134.452 138.651 134.411 138.655 134.37 138.655Z" fill="#333333"/>
<path d="M82.6558 111.622C80.999 114.817 78.4179 117.089 77.0937 124.639C75.2749 135.01 85.4753 137.45 85.4753 137.45" fill="white"/>
<path d="M85.4758 137.975C85.4353 137.975 85.3943 137.97 85.3533 137.96C85.2465 137.935 74.6946 135.282 76.5769 124.549C77.5923 118.759 79.323 116.035 80.85 113.631C81.3344 112.868 81.7916 112.148 82.19 111.38C82.3233 111.123 82.6395 111.022 82.8976 111.156C83.155 111.289 83.2554 111.606 83.1218 111.863C82.7023 112.672 82.2328 113.411 81.7358 114.194C80.2613 116.515 78.5901 119.146 77.6106 124.73C76.8915 128.831 78.0102 132.127 80.9354 134.528C83.1392 136.337 85.5729 136.933 85.5973 136.939C85.8792 137.007 86.0532 137.29 85.9858 137.572C85.9282 137.813 85.7132 137.975 85.4758 137.975Z" fill="#333333"/>
<path d="M118.598 87.9421C108.909 89.4339 103.64 81.0485 103.64 81.0485C107.585 82.5278 114.488 83.0209 118.026 80.9524C117.962 83.1763 117.994 84.9465 118.182 86.2631C118.278 86.9436 118.416 87.5058 118.598 87.9421Z" fill="#333333"/>
<path d="M111.357 40.815C111.079 40.815 110.847 40.5967 110.833 40.3158L110.553 34.5682C110.539 34.2785 110.762 34.0325 111.051 34.0182C111.338 34.0069 111.587 34.2273 111.601 34.5169L111.882 40.2645C111.896 40.5542 111.672 40.8002 111.383 40.8145C111.374 40.8148 111.366 40.815 111.357 40.815Z" fill="#333333"/>
<path d="M117.238 62.6964C116.332 62.6964 115.286 62.539 114.082 62.1539C113.806 62.0654 113.653 61.77 113.742 61.494C113.83 61.218 114.126 61.0659 114.401 61.1539C120.03 62.9553 121.499 59.3198 121.559 59.1643C121.663 58.8937 121.967 58.7602 122.237 58.8626C122.508 58.9667 122.643 59.2704 122.539 59.5411C122.524 59.5798 121.268 62.6964 117.238 62.6964Z" fill="#333333"/>
<path d="M124.268 62.5899C124.196 62.5899 124.124 62.5752 124.055 62.5443L122.575 61.8866C122.31 61.769 122.191 61.4589 122.309 61.1939C122.427 60.9289 122.737 60.809 123.002 60.9276L124.481 61.5853C124.746 61.7029 124.865 62.0131 124.747 62.278C124.661 62.4735 124.469 62.5899 124.268 62.5899Z" fill="#333333"/>
<path d="M122.214 64.9728C122.062 64.9728 121.912 64.9077 121.808 64.7816L120.658 63.3847C120.473 63.161 120.505 62.8301 120.729 62.6458C120.953 62.4612 121.284 62.4935 121.468 62.7173L122.619 64.1143C122.803 64.338 122.771 64.6689 122.547 64.8532C122.45 64.9337 122.331 64.9728 122.214 64.9728Z" fill="#333333"/>
<path d="M103.273 62.6965C99.2418 62.6965 97.987 59.5797 97.9719 59.5411C97.8678 59.2705 98.0029 58.9668 98.2736 58.8627C98.543 58.7602 98.8462 58.893 98.9509 59.1623C99.015 59.323 100.526 62.941 106.109 61.1539C106.385 61.0658 106.681 61.218 106.769 61.494C106.858 61.77 106.705 62.0655 106.429 62.1539C105.226 62.5388 104.179 62.6965 103.273 62.6965Z" fill="#333333"/>
<path d="M96.2428 62.5899C96.0416 62.5899 95.8499 62.4735 95.763 62.278C95.6451 62.0129 95.7645 61.7029 96.0293 61.5853L97.5088 60.9276C97.7733 60.8088 98.0839 60.9289 98.2015 61.1939C98.3194 61.4589 98.2 61.769 97.9352 61.8866L96.4557 62.5443C96.3865 62.5752 96.314 62.5899 96.2428 62.5899Z" fill="#333333"/>
<path d="M98.297 64.9728C98.1794 64.9728 98.0613 64.9336 97.9637 64.8531C97.74 64.6688 97.7079 64.338 97.8921 64.1142L99.0429 62.7172C99.2272 62.4933 99.5582 62.4617 99.7818 62.6457C100.005 62.8299 100.038 63.1608 99.8533 63.3846L98.7026 64.7815C98.5986 64.9077 98.4484 64.9728 98.297 64.9728Z" fill="#333333"/>
<path d="M109.064 66.9454C108.939 66.9454 108.813 66.9011 108.713 66.8107C108.498 66.6169 108.48 66.285 108.674 66.0695C109.953 64.648 109.379 61.8742 109.373 61.8465C109.312 61.563 109.492 61.2842 109.776 61.2232C110.058 61.163 110.338 61.3421 110.399 61.625C110.428 61.7598 111.095 64.9493 109.454 66.7718C109.351 66.8868 109.208 66.9454 109.064 66.9454Z" fill="#333333"/>
<path d="M114.275 56.4771C113.891 56.622 113.571 56.8792 113.437 57.2963C113.381 57.4702 113.361 57.663 113.426 57.8338C113.556 58.1755 113.962 58.3122 114.324 58.3692C115.231 58.5123 116.815 58.5765 117.36 57.6468C117.535 57.3487 117.543 56.9386 117.317 56.6762C116.866 56.15 115.354 56.2617 114.747 56.3562C114.584 56.3813 114.425 56.4207 114.275 56.4771Z" fill="#333333"/>
<path d="M105.997 56.4771C106.382 56.622 106.702 56.8792 106.836 57.2963C106.892 57.4702 106.911 57.663 106.847 57.8338C106.717 58.1755 106.311 58.3122 105.949 58.3692C105.042 58.5123 103.458 58.5765 102.913 57.6468C102.738 57.3487 102.73 56.9386 102.955 56.6762C103.407 56.15 104.919 56.2617 105.526 56.3562C105.689 56.3813 105.848 56.4207 105.997 56.4771Z" fill="#333333"/>
<path d="M100.097 41.0921C105.453 41.827 110.924 41.706 116.242 40.7352C118.944 40.2418 121.802 39.4085 123.512 37.2581C124.982 35.4078 125.327 32.9176 125.428 30.556C125.483 29.2813 125.476 27.9645 124.989 26.785C124.503 25.6054 123.43 24.5854 122.155 24.5223C121.299 24.4798 120.445 24.8623 119.599 24.7168C117.661 24.3832 117.245 21.8544 116.245 20.1607C114.313 16.8897 109.76 16.5942 105.97 16.8431C104.228 16.9575 102.456 17.1126 100.842 17.7764C99.2274 18.4402 97.7686 19.697 97.2802 21.3728C96.756 23.1717 97.3967 25.1886 96.7181 26.935C95.7773 29.356 92.683 30.3597 91.6498 32.7426C90.733 34.857 91.832 37.4266 93.6458 38.8482C95.4595 40.27 97.8142 40.7789 100.097 41.0921Z" fill="#333333"/>
<path d="M119.172 104.842C115.295 104.922 111.995 107.127 110.256 110.299C108.387 107.201 104.998 105.136 101.122 105.216C95.3504 105.336 90.769 110.112 90.8888 115.883C91.0085 121.654 99.5984 129.126 110.896 141.128C121.114 129.749 129.958 120.846 129.838 115.075C129.719 109.303 124.942 104.722 119.172 104.842Z" fill="#F688BD"/>
<path d="M162.344 35.4537C152.07 32.759 141.556 38.9039 138.862 49.1783C137.347 54.9541 138.626 60.8051 141.861 65.3005L136.472 73.2495L145.62 69.2078C147.624 70.7759 149.969 71.9744 152.586 72.6609C162.86 75.3554 173.374 69.2107 176.069 58.9363C178.763 48.6619 172.619 38.1482 162.344 35.4537Z" fill="white"/>
<path d="M157.479 73.8195C157.478 73.8195 157.479 73.8195 157.478 73.8195C155.79 73.8195 154.099 73.6005 152.453 73.1686C149.937 72.5089 147.615 71.3807 145.547 69.8141L136.684 73.7296C136.469 73.8248 136.218 73.7658 136.069 73.5858C135.918 73.4062 135.906 73.1488 136.037 72.9551L141.222 65.3065C137.931 60.5516 136.884 54.6466 138.353 49.0449C140.631 40.3603 148.485 34.2948 157.452 34.2948C159.139 34.2948 160.83 34.5137 162.477 34.9458C173.015 37.7096 179.34 48.5313 176.576 59.0695C174.299 67.7538 166.445 73.8195 157.479 73.8195ZM145.62 68.6831C145.735 68.6831 145.85 68.721 145.944 68.7946C147.961 70.3733 150.24 71.5033 152.719 72.1533C154.279 72.5623 155.88 72.7699 157.478 72.7699C157.478 72.7699 157.479 72.7699 157.479 72.7699C165.969 72.7699 173.404 67.0268 175.561 58.8031C178.178 48.8251 172.189 38.5783 162.211 35.9613C160.651 35.552 159.05 35.3447 157.453 35.3447C148.962 35.3447 141.526 41.088 139.369 49.3115C137.949 54.7276 139.012 60.4438 142.287 64.9942C142.416 65.1728 142.419 65.413 142.295 65.5952L137.932 72.0305L145.408 68.7279C145.476 68.6978 145.548 68.6831 145.62 68.6831Z" fill="#333333"/>
<path d="M163.768 41.3171C164.092 41.4982 164.408 41.692 164.717 41.9C167.887 44.031 170.052 47.6693 170.511 51.6323C170.918 55.1455 169.914 58.4022 167.686 60.803C164.249 64.5051 158.146 65.4542 153.741 62.9897C153.706 62.9704 153.673 62.9519 153.639 62.9323C148.798 60.1499 146.579 53.44 148.793 48.28C150.086 45.27 152.655 43.0973 155.498 42.6108C158.418 42.1109 161.17 43.3685 162.961 44.5038C165.645 46.2082 168.362 49.3011 167.941 52.8693C167.52 56.4357 164.066 58.8167 161.035 59.5193C159.595 59.853 157.448 60.0718 155.396 59.22C153.661 58.4965 152.345 57.0347 151.787 55.2C151.191 53.2461 151.495 51.1543 152.619 49.4601C154.058 47.2937 156.811 46.1469 159.317 46.6717C161.488 47.1271 162.964 48.7012 163.365 50.9938C163.757 53.2355 162.486 55.5712 160.471 56.3119C157.51 57.4002 156.419 56.1936 156.032 55.3783C155.408 54.0659 155.812 52.1761 156.593 51.2418C156.585 51.2043 156.577 51.167 156.571 51.1297C156.546 50.9892 156.64 50.8547 156.781 50.8297C156.855 50.8169 156.927 50.8399 156.983 50.8794C157.008 50.8631 157.033 50.8473 157.058 50.8324C157.352 50.6577 158.121 50.365 158.884 51.4219C158.916 51.4661 158.933 51.5204 158.933 51.5753C158.929 52.1484 158.696 52.7107 158.293 53.118C158.209 53.2028 158.064 53.2264 157.977 53.1592C157.459 52.8534 157.044 52.384 156.793 51.8384C156.264 52.6914 156.029 54.1674 156.499 55.1557C157.046 56.3046 158.356 56.538 160.292 55.8263C162.05 55.1803 163.2 53.0523 162.856 51.0827C162.494 49.0106 161.166 47.5883 159.211 47.178C156.908 46.6955 154.375 47.7516 153.051 49.7465C152.012 51.3109 151.732 53.2438 152.282 55.0494C152.803 56.7591 153.977 58.0697 155.594 58.7413C157.52 59.5413 159.552 59.3314 160.919 59.0152C163.779 58.3518 167.036 56.1269 167.428 52.8087C167.821 49.4791 165.235 46.5606 162.684 44.9402C160.968 43.8532 158.344 42.6489 155.586 43.1207C152.914 43.5782 150.493 45.633 149.269 48.4843C147.153 53.4147 149.272 59.8256 153.897 62.4835C153.929 62.502 153.962 62.5203 153.994 62.5383C158.2 64.8913 164.026 63.9852 167.307 60.4505C169.431 58.1628 170.386 55.0522 169.998 51.6917C169.556 47.8772 167.474 44.3772 164.428 42.329C160.959 39.9971 156.455 39.3982 152.661 40.7586C149.329 41.9535 146.937 44.477 145.926 47.8655C143.862 54.7768 146.729 64.207 154.304 67.2161C154.433 67.27 154.502 67.4194 154.449 67.5524C154.396 67.6851 154.245 67.75 154.113 67.6972C146.285 64.5731 143.3 54.8478 145.43 47.7176C146.49 44.1675 148.996 41.5231 152.486 40.2717C156.094 38.9778 160.32 39.3885 163.768 41.3171ZM158.413 51.656C158.051 51.1904 157.684 51.0632 157.321 51.2778C157.269 51.3085 157.219 51.3448 157.169 51.3866C157.332 51.8701 157.648 52.2996 158.062 52.597C158.269 52.3271 158.393 51.9965 158.413 51.656Z" fill="#333333"/>
<path d="M154.208 68.1095C154.125 68.1095 154.044 68.0939 153.967 68.0632C145.936 64.8583 142.874 54.8975 145.052 47.6052C146.149 43.9321 148.741 41.1962 152.353 39.9015C153.778 39.3901 155.301 39.131 156.881 39.131C159.357 39.131 161.805 39.7682 163.96 40.9735C164.296 41.1615 164.625 41.3637 164.937 41.5739C168.2 43.7676 170.43 47.511 170.902 51.587C171.323 55.2157 170.283 58.5838 167.975 61.0708C165.836 63.3751 162.546 64.7508 159.176 64.7508C157.152 64.7508 155.206 64.2608 153.548 63.3335L153.442 63.2728C148.437 60.3965 146.142 53.4593 148.432 48.1247C149.776 44.9932 152.458 42.7317 155.432 42.2227C155.89 42.1443 156.365 42.1043 156.841 42.1043C159.378 42.1043 161.684 43.2284 163.172 44.1715C165.957 45.9401 168.775 49.1657 168.332 52.9154C167.889 56.6708 164.285 59.1701 161.124 59.9028C159.002 60.3941 156.945 60.2889 155.245 59.5837C153.399 58.8135 152.002 57.2577 151.41 55.3145C150.781 53.248 151.102 51.0348 152.291 49.2422C153.557 47.336 155.777 46.1517 158.085 46.1517C158.529 46.1517 158.971 46.1971 159.397 46.2865C161.736 46.7767 163.323 48.4677 163.753 50.9257C164.176 53.3486 162.794 55.8769 160.606 56.6814C159.78 56.9848 159.028 57.1388 158.371 57.1388C156.684 57.1388 155.958 56.1416 155.676 55.547C154.994 54.1113 155.397 52.1957 156.175 51.1368C156.149 50.8049 156.379 50.5007 156.712 50.4417C156.794 50.4279 156.87 50.4294 156.946 50.4441C157.122 50.3533 157.371 50.2641 157.671 50.2641C158.064 50.2641 158.65 50.4251 159.203 51.191C159.282 51.2992 159.327 51.4366 159.327 51.575C159.322 52.2539 159.046 52.9159 158.572 53.3946C158.364 53.6067 157.998 53.6519 157.761 53.4884C157.41 53.2785 157.097 52.9984 156.842 52.6706C156.598 53.3992 156.54 54.3244 156.855 54.9864C157.126 55.5579 157.622 55.836 158.369 55.836C158.87 55.836 159.472 55.7084 160.156 55.4564C161.744 54.8729 162.781 52.9412 162.468 51.15C162.135 49.2458 160.919 47.9383 159.13 47.5628C158.789 47.4915 158.436 47.4554 158.08 47.4554C156.207 47.4554 154.406 48.4165 153.379 49.9636C152.405 51.4304 152.143 53.2421 152.658 54.9343C153.145 56.5299 154.241 57.7529 155.745 58.3771C157.192 58.9784 158.972 59.0607 160.83 58.6314C163.56 57.9981 166.667 55.8914 167.037 52.7622C167.408 49.6135 164.923 46.8288 162.473 45.2721C161.131 44.4223 159.064 43.4088 156.842 43.4088C156.439 43.4088 156.038 43.4421 155.652 43.5083C153.11 43.9438 150.802 45.9098 149.63 48.6392C147.589 53.3951 149.633 59.5787 154.093 62.1419L154.185 62.1937C155.654 63.0155 157.382 63.4498 159.183 63.4498C162.19 63.4498 165.119 62.2283 167.018 60.1824C169.063 57.9801 169.982 54.9808 169.606 51.7367C169.178 48.0352 167.16 44.6404 164.209 42.6554C162.077 41.2228 159.476 40.4336 156.885 40.4336C155.456 40.4336 154.08 40.6676 152.794 41.1289C149.583 42.2804 147.278 44.7128 146.303 47.9777C144.287 54.7282 147.079 63.9222 154.45 66.8498C154.785 66.9905 154.946 67.3695 154.815 67.6979C154.715 67.948 154.477 68.1095 154.208 68.1095ZM157.676 51.5706C157.753 51.7147 157.847 51.8495 157.954 51.9712C157.975 51.9087 157.991 51.8449 158.003 51.78C157.881 51.6495 157.768 51.5764 157.676 51.5706Z" fill="#333333"/>
<path d="M42.5681 46.7386H23.8416C20.375 46.7386 17.5386 49.5749 17.5386 53.0415V128.704C17.5386 132.17 20.3748 135.006 23.8415 135.006H42.568C46.0346 135.006 48.8709 132.17 48.8709 128.704V53.0415C48.871 49.5749 46.0347 46.7386 42.5681 46.7386Z" fill="white"/>
<path d="M33.2048 135.531C24.2769 135.531 17.0137 128.268 17.0137 119.34V62.4047C17.0137 53.477 24.2769 46.2136 33.2048 46.2136C42.1327 46.2136 49.3958 53.477 49.3958 62.4047V119.34C49.3958 128.268 42.1327 135.531 33.2048 135.531ZM33.2048 47.2634C24.8557 47.2634 18.0635 54.0558 18.0635 62.4047V119.34C18.0635 127.689 24.8558 134.482 33.2048 134.482C41.5537 134.482 48.346 127.689 48.346 119.34V62.4047C48.3461 54.0558 41.5537 47.2634 33.2048 47.2634Z" fill="#333333"/>
<path d="M41.2187 70.3494C45.6452 65.9229 45.6452 58.7461 41.2187 54.3196C36.7922 49.8931 29.6155 49.8931 25.189 54.3196C20.7625 58.7461 20.7625 65.9229 25.189 70.3494C29.6155 74.7759 36.7922 74.7759 41.2187 70.3494Z" fill="#F688BD"/>
<path d="M33.205 101.041C39.4651 101.041 44.5399 95.9667 44.5399 89.7066C44.5399 83.4465 39.4651 78.3717 33.205 78.3717C26.9449 78.3717 21.8701 83.4465 21.8701 89.7066C21.8701 95.9667 26.9449 101.041 33.205 101.041Z" fill="#AFDDD8"/>
<path d="M33.205 128.935C39.4651 128.935 44.5399 123.86 44.5399 117.6C44.5399 111.34 39.4651 106.265 33.205 106.265C26.9449 106.265 21.8701 111.34 21.8701 117.6C21.8701 123.86 26.9449 128.935 33.205 128.935Z" fill="#52B0A5"/>
<path d="M38.8327 64.3032C39.5345 64.1893 40.0112 63.528 39.8973 62.8261C39.7834 62.1243 39.1221 61.6477 38.4202 61.7616C37.7184 61.8755 37.2418 62.5368 37.3557 63.2386C37.4696 63.9405 38.1309 64.4171 38.8327 64.3032Z" fill="#954791"/>
<path d="M28.2302 64.3034C28.932 64.1895 29.4086 63.5282 29.2947 62.8263C29.1808 62.1245 28.5195 61.6479 27.8177 61.7618C27.1158 61.8757 26.6392 62.537 26.7531 63.2388C26.867 63.9407 27.5283 64.4173 28.2302 64.3034Z" fill="#954791"/>
<path d="M33.296 65.785C32.4499 65.785 31.494 65.5127 30.5075 64.7569C30.043 64.4011 29.9549 63.7362 30.3108 63.2716C30.6665 62.8068 31.3314 62.7191 31.7959 63.0748C33.4136 64.3137 34.5457 63.214 34.5928 63.1668C35.0067 62.7529 35.6776 62.753 36.0911 63.1666C36.505 63.5805 36.505 64.2512 36.0913 64.6649C35.5789 65.1775 34.5597 65.785 33.296 65.785Z" fill="#954791"/>
<path d="M38.8332 92.4762C39.535 92.3623 40.0116 91.701 39.8977 90.9992C39.7838 90.2973 39.1225 89.8207 38.4207 89.9346C37.7189 90.0485 37.2422 90.7098 37.3561 91.4117C37.47 92.1135 38.1313 92.5901 38.8332 92.4762Z" fill="#52B0A5"/>
<path d="M28.2304 92.4764C28.9322 92.3625 29.4089 91.7012 29.295 90.9994C29.181 90.2975 28.5198 89.8209 27.8179 89.9348C27.1161 90.0487 26.6395 90.71 26.7534 91.4118C26.8673 92.1137 27.5286 92.5903 28.2304 92.4764Z" fill="#52B0A5"/>
<path d="M33.3459 93.1705C32.7184 93.1705 31.9688 93.1648 31.1303 93.1478C30.5451 93.1358 30.0806 92.6518 30.0925 92.067C30.1048 91.4822 30.6006 91.0215 31.1734 91.0292C33.5886 91.0785 35.2943 91.0301 35.3112 91.0296C35.8892 91.0081 36.3837 91.4724 36.4012 92.0575C36.4185 92.6423 35.9582 93.1304 35.3735 93.1476C35.3262 93.1488 34.5679 93.1705 33.3459 93.1705Z" fill="#52B0A5"/>
<path d="M38.6238 119.15C39.3349 119.15 39.9112 118.574 39.9112 117.863C39.9112 117.152 39.3349 116.575 38.6238 116.575C37.9128 116.575 37.3364 117.152 37.3364 117.863C37.3364 118.574 37.9128 119.15 38.6238 119.15Z" fill="#AFDDD8"/>
<path d="M28.0213 119.15C28.7323 119.15 29.3087 118.574 29.3087 117.863C29.3087 117.152 28.7323 116.575 28.0213 116.575C27.3103 116.575 26.7339 117.152 26.7339 117.863C26.7339 118.574 27.3103 119.15 28.0213 119.15Z" fill="#AFDDD8"/>
<path d="M35.3414 120.614C35.1166 120.614 34.8902 120.543 34.6979 120.395C33.0802 119.156 31.9481 120.256 31.901 120.303C31.4871 120.717 30.8162 120.717 30.4027 120.304C29.9888 119.89 29.9888 119.219 30.4026 118.805C31.2584 117.949 33.5267 116.829 35.9864 118.713C36.4509 119.069 36.5391 119.734 36.1832 120.199C35.9745 120.471 35.6596 120.614 35.3414 120.614Z" fill="#AFDDD8"/>
<path d="M9.89551 69.2299L21.4891 75.3891L9.89551 81.1858V69.2299Z" fill="#333333"/>
<path d="M9.90998 81.7109C9.81396 81.7109 9.66305 81.6844 9.57884 81.6325C9.42408 81.5368 9.27466 81.3679 9.27466 81.186V69.2299C9.27466 69.0456 9.42644 68.875 9.58431 68.7802C9.74217 68.6848 9.96562 68.6802 10.1286 68.7664L21.736 74.9254C21.9095 75.0177 22.0239 75.1992 22.0214 75.3954C22.0189 75.5921 21.9105 75.7707 21.7347 75.8586L10.1429 81.6556C10.0688 81.6924 9.99009 81.7109 9.90998 81.7109ZM10.5167 70.1031V80.3366L20.4401 75.3749L10.5167 70.1031Z" fill="#333333"/>
<path d="M97.8164 39.6379C98.357 40.0575 98.2532 40.9126 98.612 41.4952C99.1133 42.3094 100.274 42.3153 101.225 42.2229C102.177 42.1307 103.336 42.1324 103.842 42.9436C104.037 43.2547 104.089 43.6357 104.074 44.0021C104.031 45.0431 103.484 45.9963 102.853 46.8259C102.042 47.8931 100.943 48.8952 99.6043 48.9733C99.2369 48.9948 98.8452 48.9349 98.5611 48.7009C97.821 48.0912 98.2256 46.7567 97.5533 46.073C97.0537 45.5648 96.2275 45.6674 95.5341 45.5036C94.5218 45.2644 93.7148 44.3291 93.6264 43.2929C93.4982 41.7921 94.7319 40.5064 96.0537 39.7843C96.6026 39.4843 97.3223 39.2545 97.8164 39.6379Z" fill="white"/>
</svg>
